<svg width="676" height="122" viewBox="0 0 676 122" fill="none" xmlns="http://www.w3.org/2000/svg">
<path d="M16.0653 5.54545V23H13.2528L5.02841 11.1108H4.88352V23H1.72159V5.54545H4.55114L12.767 17.4432H12.9205V5.54545H16.0653ZM25.0845 23.2557C23.8061 23.2557 22.6982 22.9744 21.7607 22.4119C20.8232 21.8494 20.0959 21.0625 19.5788 20.0511C19.0675 19.0398 18.8118 17.858 18.8118 16.5057C18.8118 15.1534 19.0675 13.9687 19.5788 12.9517C20.0959 11.9347 20.8232 11.1449 21.7607 10.5824C22.6982 10.0199 23.8061 9.73864 25.0845 9.73864C26.3629 9.73864 27.4709 10.0199 28.4084 10.5824C29.3459 11.1449 30.0703 11.9347 30.5817 12.9517C31.0987 13.9687 31.3572 15.1534 31.3572 16.5057C31.3572 17.858 31.0987 19.0398 30.5817 20.0511C30.0703 21.0625 29.3459 21.8494 28.4084 22.4119C27.4709 22.9744 26.3629 23.2557 25.0845 23.2557ZM25.1016 20.7841C25.7947 20.7841 26.3743 20.5937 26.8402 20.2131C27.3061 19.8267 27.6527 19.3097 27.88 18.6619C28.1129 18.0142 28.2294 17.2926 28.2294 16.4972C28.2294 15.696 28.1129 14.9716 27.88 14.3239C27.6527 13.6705 27.3061 13.1506 26.8402 12.7642C26.3743 12.3778 25.7947 12.1847 25.1016 12.1847C24.3913 12.1847 23.8004 12.3778 23.3288 12.7642C22.8629 13.1506 22.5135 13.6705 22.2805 14.3239C22.0533 14.9716 21.9396 15.696 21.9396 16.4972C21.9396 17.2926 22.0533 18.0142 22.2805 18.6619C22.5135 19.3097 22.8629 19.8267 23.3288 20.2131C23.8004 20.5937 24.3913 20.7841 25.1016 20.7841ZM42.3196 17.4943V9.90909H45.4048V23H42.4134V20.6733H42.277C41.9815 21.4062 41.4957 22.0057 40.8196 22.4716C40.1491 22.9375 39.3224 23.1705 38.3395 23.1705C37.4815 23.1705 36.723 22.9801 36.0639 22.5994C35.4105 22.2131 34.8991 21.6534 34.5298 20.9205C34.1605 20.1818 33.9759 19.2898 33.9759 18.2443V9.90909H37.0611V17.767C37.0611 18.5966 37.2884 19.2557 37.7429 19.7443C38.1974 20.233 38.794 20.4773 39.5327 20.4773C39.9872 20.4773 40.4276 20.3665 40.8537 20.1449C41.2798 19.9233 41.6293 19.5938 41.902 19.1562C42.1804 18.7131 42.3196 18.1591 42.3196 17.4943ZM51.6626 15.3295V23H48.5774V9.90909H51.5263V12.1335H51.6797C51.9808 11.4006 52.4609 10.8182 53.12 10.3864C53.7848 9.95455 54.6058 9.73864 55.5831 9.73864C56.4865 9.73864 57.2734 9.93182 57.9439 10.3182C58.62 10.7045 59.1428 11.2642 59.5121 11.9972C59.8871 12.7301 60.0717 13.6193 60.0661 14.6648V23H56.9808V15.142C56.9808 14.267 56.7536 13.5824 56.299 13.0881C55.8501 12.5937 55.228 12.3466 54.4325 12.3466C53.8928 12.3466 53.4126 12.4659 52.9922 12.7045C52.5774 12.9375 52.2507 13.2756 52.0121 13.7188C51.7791 14.1619 51.6626 14.6989 51.6626 15.3295Z" fill="#4697F7"/>
<rect x="1" y="37" width="12" height="12" fill="white" stroke="#4697F7" stroke-width="2"/>
<rect x="593" y="37" width="12" height="12" fill="white" stroke="#4697F7" stroke-width="2"/>
<path d="M11.9692 43H591.969" stroke="#4697F7" stroke-width="2"/>
<rect x="1" y="109" width="12" height="12" fill="white" stroke="#4697F7" stroke-width="2"/>
<rect x="593" y="109" width="12" height="12" fill="white" stroke="#4697F7" stroke-width="2"/>
<path d="M11.9692 115H591.969" stroke="#4697F7" stroke-width="2"/>
<line x1="7" y1="50" x2="7" y2="108" stroke="#4697F7" stroke-width="2"/>
<line x1="600" y1="48" x2="600" y2="110" stroke="#4697F7" stroke-width="2"/>
</svg>
