<svg width="676" height="285" viewBox="0 0 676 285" fill="none" xmlns="http://www.w3.org/2000/svg">
<path d="M16.0653 5.54545V23H13.2528L5.02841 11.1108H4.88352V23H1.72159V5.54545H4.55114L12.767 17.4432H12.9205V5.54545H16.0653ZM25.0845 23.2557C23.8061 23.2557 22.6982 22.9744 21.7607 22.4119C20.8232 21.8494 20.0959 21.0625 19.5788 20.0511C19.0675 19.0398 18.8118 17.858 18.8118 16.5057C18.8118 15.1534 19.0675 13.9687 19.5788 12.9517C20.0959 11.9347 20.8232 11.1449 21.7607 10.5824C22.6982 10.0199 23.8061 9.73864 25.0845 9.73864C26.3629 9.73864 27.4709 10.0199 28.4084 10.5824C29.3459 11.1449 30.0703 11.9347 30.5817 12.9517C31.0987 13.9687 31.3572 15.1534 31.3572 16.5057C31.3572 17.858 31.0987 19.0398 30.5817 20.0511C30.0703 21.0625 29.3459 21.8494 28.4084 22.4119C27.4709 22.9744 26.3629 23.2557 25.0845 23.2557ZM25.1016 20.7841C25.7947 20.7841 26.3743 20.5937 26.8402 20.2131C27.3061 19.8267 27.6527 19.3097 27.88 18.6619C28.1129 18.0142 28.2294 17.2926 28.2294 16.4972C28.2294 15.696 28.1129 14.9716 27.88 14.3239C27.6527 13.6705 27.3061 13.1506 26.8402 12.7642C26.3743 12.3778 25.7947 12.1847 25.1016 12.1847C24.3913 12.1847 23.8004 12.3778 23.3288 12.7642C22.8629 13.1506 22.5135 13.6705 22.2805 14.3239C22.0533 14.9716 21.9396 15.696 21.9396 16.4972C21.9396 17.2926 22.0533 18.0142 22.2805 18.6619C22.5135 19.3097 22.8629 19.8267 23.3288 20.2131C23.8004 20.5937 24.3913 20.7841 25.1016 20.7841ZM42.3196 17.4943V9.90909H45.4048V23H42.4134V20.6733H42.277C41.9815 21.4062 41.4957 22.0057 40.8196 22.4716C40.1491 22.9375 39.3224 23.1705 38.3395 23.1705C37.4815 23.1705 36.723 22.9801 36.0639 22.5994C35.4105 22.2131 34.8991 21.6534 34.5298 20.9205C34.1605 20.1818 33.9759 19.2898 33.9759 18.2443V9.90909H37.0611V17.767C37.0611 18.5966 37.2884 19.2557 37.7429 19.7443C38.1974 20.233 38.794 20.4773 39.5327 20.4773C39.9872 20.4773 40.4276 20.3665 40.8537 20.1449C41.2798 19.9233 41.6293 19.5938 41.902 19.1562C42.1804 18.7131 42.3196 18.1591 42.3196 17.4943ZM51.6626 15.3295V23H48.5774V9.90909H51.5263V12.1335H51.6797C51.9808 11.4006 52.4609 10.8182 53.12 10.3864C53.7848 9.95455 54.6058 9.73864 55.5831 9.73864C56.4865 9.73864 57.2734 9.93182 57.9439 10.3182C58.62 10.7045 59.1428 11.2642 59.5121 11.9972C59.8871 12.7301 60.0717 13.6193 60.0661 14.6648V23H56.9808V15.142C56.9808 14.267 56.7536 13.5824 56.299 13.0881C55.8501 12.5937 55.228 12.3466 54.4325 12.3466C53.8928 12.3466 53.4126 12.4659 52.9922 12.7045C52.5774 12.9375 52.2507 13.2756 52.0121 13.7188C51.7791 14.1619 51.6626 14.6989 51.6626 15.3295Z" fill="#4697F7"/>
<rect x="1" y="30" width="8" height="8" fill="white" stroke="#4697F7" stroke-width="2"/>
<rect x="654" y="30" width="8" height="8" fill="white" stroke="#4697F7" stroke-width="2"/>
<path d="M9 34H653" stroke="#4697F7" stroke-width="2"/>
<rect x="1" y="102" width="8" height="8" fill="white" stroke="#4697F7" stroke-width="2"/>
<rect x="654" y="102" width="8" height="8" fill="white" stroke="#4697F7" stroke-width="2"/>
<path d="M9 106H653" stroke="#4697F7" stroke-width="2"/>
<line x1="5.11169" y1="39" x2="5.11169" y2="101" stroke="#4697F7" stroke-width="2"/>
<line x1="659.14" y1="39" x2="659.14" y2="101" stroke="#4697F7" stroke-width="2"/>
<path d="M44.048 56.6V79H40.976V75.832C39.4613 78.1147 37.0293 79.256 33.68 79.256C31.0133 79.256 28.9227 78.4453 27.408 76.824C25.9147 75.2027 25.168 72.888 25.168 69.88V56.6H28.368V69.784C28.368 71.9387 28.9013 73.5813 29.968 74.712C31.0347 75.8427 32.496 76.408 34.352 76.408C36.3573 76.408 37.9467 75.8107 39.12 74.616C40.2933 73.4213 40.88 71.6507 40.88 69.304V56.6H44.048ZM56.3023 59.384V76.216H60.6223V79H48.7823V76.216H53.1023V59.384H48.7823V56.6H60.6223V59.384H56.3023ZM71.664 52.056H74.448L63.888 82.2H61.104L71.664 52.056ZM95.298 56.6V79H92.226V75.832C90.7113 78.1147 88.2793 79.256 84.93 79.256C82.2633 79.256 80.1727 78.4453 78.658 76.824C77.1647 75.2027 76.418 72.888 76.418 69.88V56.6H79.618V69.784C79.618 71.9387 80.1513 73.5813 81.218 74.712C82.2847 75.8427 83.746 76.408 85.602 76.408C87.6073 76.408 89.1967 75.8107 90.37 74.616C91.5433 73.4213 92.13 71.6507 92.13 69.304V56.6H95.298ZM116.096 79L109.376 69.752L102.752 79H99.0723L107.488 67.512L99.5843 56.6H103.232L109.504 65.208L115.712 56.6H119.2L111.296 67.416L119.776 79H116.096ZM147.693 55.256V79H144.749V76.312C144.067 77.2507 143.203 77.9653 142.157 78.456C141.112 78.9467 139.96 79.192 138.701 79.192C137.059 79.192 135.587 78.8293 134.285 78.104C132.984 77.3787 131.96 76.3653 131.213 75.064C130.488 73.7413 130.125 72.2267 130.125 70.52C130.125 68.8133 130.488 67.3093 131.213 66.008C131.96 64.7067 132.984 63.6933 134.285 62.968C135.587 62.2427 137.059 61.88 138.701 61.88C139.917 61.88 141.037 62.1147 142.061 62.584C143.085 63.032 143.939 63.704 144.621 64.6V55.256H147.693ZM138.957 76.504C140.024 76.504 140.995 76.2587 141.869 75.768C142.744 75.256 143.427 74.552 143.917 73.656C144.408 72.7387 144.653 71.6933 144.653 70.52C144.653 69.3467 144.408 68.312 143.917 67.416C143.427 66.4987 142.744 65.7947 141.869 65.304C140.995 64.8133 140.024 64.568 138.957 64.568C137.869 64.568 136.888 64.8133 136.013 65.304C135.16 65.7947 134.477 66.4987 133.965 67.416C133.475 68.312 133.229 69.3467 133.229 70.52C133.229 71.6933 133.475 72.7387 133.965 73.656C134.477 74.552 135.16 75.256 136.013 75.768C136.888 76.2587 137.869 76.504 138.957 76.504ZM161.154 76.504C163.18 76.504 164.812 75.8213 166.05 74.456L167.714 76.44C166.967 77.336 166.018 78.0187 164.866 78.488C163.735 78.9573 162.466 79.192 161.058 79.192C159.266 79.192 157.676 78.8293 156.29 78.104C154.903 77.3573 153.826 76.3227 153.058 75C152.311 73.6773 151.938 72.184 151.938 70.52C151.938 68.8773 152.3 67.3947 153.026 66.072C153.772 64.7493 154.786 63.7253 156.066 63C157.367 62.2533 158.828 61.88 160.45 61.88C161.986 61.88 163.383 62.232 164.642 62.936C165.9 63.6187 166.903 64.5893 167.65 65.848C168.396 67.1067 168.78 68.5573 168.802 70.2L155.33 72.824C155.756 73.9973 156.471 74.904 157.474 75.544C158.498 76.184 159.724 76.504 161.154 76.504ZM160.45 64.472C159.383 64.472 158.423 64.7173 157.57 65.208C156.738 65.6987 156.087 66.392 155.618 67.288C155.148 68.1627 154.914 69.1867 154.914 70.36V70.68L165.762 68.632C165.484 67.3947 164.866 66.392 163.906 65.624C162.946 64.856 161.794 64.472 160.45 64.472ZM177.964 79.192C176.577 79.192 175.244 79.0107 173.964 78.648C172.684 78.264 171.681 77.784 170.956 77.208L172.236 74.776C172.982 75.3093 173.889 75.736 174.956 76.056C176.022 76.376 177.1 76.536 178.188 76.536C180.876 76.536 182.22 75.768 182.22 74.232C182.22 73.72 182.038 73.3147 181.676 73.016C181.313 72.7173 180.854 72.504 180.3 72.376C179.766 72.2267 178.998 72.0667 177.996 71.896C176.63 71.6827 175.51 71.4373 174.636 71.16C173.782 70.8827 173.046 70.4133 172.428 69.752C171.809 69.0907 171.5 68.1627 171.5 66.968C171.5 65.432 172.14 64.2053 173.42 63.288C174.7 62.3493 176.417 61.88 178.572 61.88C179.702 61.88 180.833 62.0187 181.964 62.296C183.094 62.5733 184.022 62.9467 184.748 63.416L183.436 65.848C182.049 64.952 180.417 64.504 178.54 64.504C177.238 64.504 176.246 64.7173 175.564 65.144C174.881 65.5707 174.54 66.136 174.54 66.84C174.54 67.3947 174.732 67.832 175.116 68.152C175.5 68.472 175.969 68.7067 176.524 68.856C177.1 69.0053 177.9 69.176 178.924 69.368C180.289 69.6027 181.388 69.8587 182.22 70.136C183.073 70.392 183.798 70.84 184.396 71.48C184.993 72.12 185.292 73.016 185.292 74.168C185.292 75.704 184.63 76.9307 183.308 77.848C182.006 78.744 180.225 79.192 177.964 79.192ZM189.131 62.04H192.203V79H189.131V62.04ZM190.667 58.776C190.069 58.776 189.568 58.584 189.163 58.2C188.779 57.816 188.587 57.3467 188.587 56.792C188.587 56.2373 188.779 55.768 189.163 55.384C189.568 54.9787 190.069 54.776 190.667 54.776C191.264 54.776 191.755 54.968 192.139 55.352C192.544 55.7147 192.747 56.1733 192.747 56.728C192.747 57.304 192.544 57.7947 192.139 58.2C191.755 58.584 191.264 58.776 190.667 58.776ZM214.292 62.04V76.696C214.292 79.6613 213.556 81.848 212.084 83.256C210.612 84.6853 208.415 85.4 205.492 85.4C203.892 85.4 202.367 85.176 200.916 84.728C199.466 84.3013 198.292 83.6827 197.396 82.872L198.868 80.504C199.658 81.1867 200.628 81.72 201.78 82.104C202.954 82.5093 204.159 82.712 205.396 82.712C207.38 82.712 208.842 82.2427 209.78 81.304C210.74 80.3653 211.22 78.936 211.22 77.016V75.672C210.495 76.5467 209.599 77.208 208.532 77.656C207.487 78.0827 206.346 78.296 205.108 78.296C203.487 78.296 202.015 77.9547 200.692 77.272C199.391 76.568 198.367 75.5973 197.62 74.36C196.874 73.1013 196.5 71.672 196.5 70.072C196.5 68.472 196.874 67.0533 197.62 65.816C198.367 64.5573 199.391 63.5867 200.692 62.904C202.015 62.2213 203.487 61.88 205.108 61.88C206.388 61.88 207.572 62.1147 208.66 62.584C209.77 63.0533 210.676 63.7467 211.38 64.664V62.04H214.292ZM205.46 75.608C206.57 75.608 207.562 75.3733 208.436 74.904C209.332 74.4347 210.026 73.784 210.516 72.952C211.028 72.0987 211.284 71.1387 211.284 70.072C211.284 68.4293 210.74 67.1067 209.652 66.104C208.564 65.08 207.167 64.568 205.46 64.568C203.732 64.568 202.324 65.08 201.236 66.104C200.148 67.1067 199.604 68.4293 199.604 70.072C199.604 71.1387 199.85 72.0987 200.34 72.952C200.852 73.784 201.546 74.4347 202.42 74.904C203.316 75.3733 204.33 75.608 205.46 75.608ZM229.218 61.88C231.373 61.88 233.079 62.5093 234.338 63.768C235.618 65.0053 236.258 66.8293 236.258 69.24V79H233.186V69.592C233.186 67.9493 232.791 66.712 232.002 65.88C231.213 65.048 230.082 64.632 228.61 64.632C226.946 64.632 225.634 65.1227 224.674 66.104C223.714 67.064 223.234 68.4507 223.234 70.264V79H220.162V62.04H223.106V64.6C223.725 63.7253 224.557 63.0533 225.602 62.584C226.669 62.1147 227.874 61.88 229.218 61.88ZM249.685 76.504C251.712 76.504 253.344 75.8213 254.581 74.456L256.245 76.44C255.498 77.336 254.549 78.0187 253.397 78.488C252.266 78.9573 250.997 79.192 249.589 79.192C247.797 79.192 246.208 78.8293 244.821 78.104C243.434 77.3573 242.357 76.3227 241.589 75C240.842 73.6773 240.469 72.184 240.469 70.52C240.469 68.8773 240.832 67.3947 241.557 66.072C242.304 64.7493 243.317 63.7253 244.597 63C245.898 62.2533 247.36 61.88 248.981 61.88C250.517 61.88 251.914 62.232 253.173 62.936C254.432 63.6187 255.434 64.5893 256.181 65.848C256.928 67.1067 257.312 68.5573 257.333 70.2L243.861 72.824C244.288 73.9973 245.002 74.904 246.005 75.544C247.029 76.184 248.256 76.504 249.685 76.504ZM248.981 64.472C247.914 64.472 246.954 64.7173 246.101 65.208C245.269 65.6987 244.618 66.392 244.149 67.288C243.68 68.1627 243.445 69.1867 243.445 70.36V70.68L254.293 68.632C254.016 67.3947 253.397 66.392 252.437 65.624C251.477 64.856 250.325 64.472 248.981 64.472ZM264.575 64.888C265.108 63.9067 265.897 63.16 266.943 62.648C267.988 62.136 269.257 61.88 270.751 61.88V64.856C270.58 64.8347 270.345 64.824 270.047 64.824C268.383 64.824 267.071 65.3253 266.111 66.328C265.172 67.3093 264.703 68.7173 264.703 70.552V79H261.631V62.04H264.575V64.888ZM275.211 74.808C275.809 74.808 276.299 75.0213 276.683 75.448C277.089 75.8533 277.291 76.3653 277.291 76.984C277.291 77.304 277.249 77.6133 277.163 77.912C277.099 78.2107 276.961 78.6693 276.747 79.288L275.243 83.736H273.227L274.411 78.968C274.006 78.8187 273.675 78.5733 273.419 78.232C273.185 77.8693 273.067 77.4533 273.067 76.984C273.067 76.344 273.27 75.8213 273.675 75.416C274.081 75.0107 274.593 74.808 275.211 74.808ZM296.271 59.384V76.216H300.591V79H288.751V76.216H293.071V59.384H288.751V56.6H300.591V59.384H296.271ZM313.937 61.88C316.091 61.88 317.798 62.5093 319.057 63.768C320.337 65.0053 320.977 66.8293 320.977 69.24V79H317.905V69.592C317.905 67.9493 317.51 66.712 316.721 65.88C315.931 65.048 314.801 64.632 313.329 64.632C311.665 64.632 310.353 65.1227 309.393 66.104C308.433 67.064 307.953 68.4507 307.953 70.264V79H304.881V62.04H307.825V64.6C308.443 63.7253 309.275 63.0533 310.321 62.584C311.387 62.1147 312.593 61.88 313.937 61.88ZM331.526 79.192C330.139 79.192 328.806 79.0107 327.526 78.648C326.246 78.264 325.243 77.784 324.518 77.208L325.798 74.776C326.545 75.3093 327.451 75.736 328.518 76.056C329.585 76.376 330.662 76.536 331.75 76.536C334.438 76.536 335.782 75.768 335.782 74.232C335.782 73.72 335.601 73.3147 335.238 73.016C334.875 72.7173 334.417 72.504 333.862 72.376C333.329 72.2267 332.561 72.0667 331.558 71.896C330.193 71.6827 329.073 71.4373 328.198 71.16C327.345 70.8827 326.609 70.4133 325.99 69.752C325.371 69.0907 325.062 68.1627 325.062 66.968C325.062 65.432 325.702 64.2053 326.982 63.288C328.262 62.3493 329.979 61.88 332.134 61.88C333.265 61.88 334.395 62.0187 335.526 62.296C336.657 62.5733 337.585 62.9467 338.31 63.416L336.998 65.848C335.611 64.952 333.979 64.504 332.102 64.504C330.801 64.504 329.809 64.7173 329.126 65.144C328.443 65.5707 328.102 66.136 328.102 66.84C328.102 67.3947 328.294 67.832 328.678 68.152C329.062 68.472 329.531 68.7067 330.086 68.856C330.662 69.0053 331.462 69.176 332.486 69.368C333.851 69.6027 334.95 69.8587 335.782 70.136C336.635 70.392 337.361 70.84 337.958 71.48C338.555 72.12 338.854 73.016 338.854 74.168C338.854 75.704 338.193 76.9307 336.87 77.848C335.569 78.744 333.787 79.192 331.526 79.192ZM351.621 78.008C351.173 78.392 350.619 78.6907 349.957 78.904C349.296 79.096 348.613 79.192 347.909 79.192C346.203 79.192 344.88 78.7333 343.941 77.816C343.003 76.8987 342.533 75.5867 342.533 73.88V58.328H345.605V62.04H350.469V64.568H345.605V73.752C345.605 74.6693 345.829 75.3733 346.277 75.864C346.747 76.3547 347.408 76.6 348.261 76.6C349.2 76.6 350 76.3333 350.661 75.8L351.621 78.008ZM358.262 64.888C358.796 63.9067 359.585 63.16 360.63 62.648C361.676 62.136 362.945 61.88 364.438 61.88V64.856C364.268 64.8347 364.033 64.824 363.734 64.824C362.07 64.824 360.758 65.3253 359.798 66.328C358.86 67.3093 358.39 68.7173 358.39 70.552V79H355.318V62.04H358.262V64.888ZM384.251 62.04V79H381.339V76.44C380.721 77.3147 379.899 77.9973 378.875 78.488C377.873 78.9573 376.774 79.192 375.579 79.192C373.318 79.192 371.537 78.5733 370.235 77.336C368.934 76.0773 368.283 74.232 368.283 71.8V62.04H371.355V71.448C371.355 73.0907 371.75 74.3387 372.539 75.192C373.329 76.024 374.459 76.44 375.931 76.44C377.553 76.44 378.833 75.9493 379.771 74.968C380.71 73.9867 381.179 72.6 381.179 70.808V62.04H384.251ZM397.492 79.192C395.764 79.192 394.217 78.8187 392.852 78.072C391.508 77.3253 390.452 76.3013 389.684 75C388.916 73.6773 388.532 72.184 388.532 70.52C388.532 68.856 388.916 67.3733 389.684 66.072C390.452 64.7493 391.508 63.7253 392.852 63C394.217 62.2533 395.764 61.88 397.492 61.88C399.028 61.88 400.393 62.1893 401.588 62.808C402.804 63.4267 403.742 64.3227 404.404 65.496L402.068 67C401.534 66.1893 400.873 65.5813 400.084 65.176C399.294 64.7707 398.42 64.568 397.46 64.568C396.35 64.568 395.348 64.8133 394.452 65.304C393.577 65.7947 392.884 66.4987 392.372 67.416C391.881 68.312 391.636 69.3467 391.636 70.52C391.636 71.7147 391.881 72.7707 392.372 73.688C392.884 74.584 393.577 75.2773 394.452 75.768C395.348 76.2587 396.35 76.504 397.46 76.504C398.42 76.504 399.294 76.3013 400.084 75.896C400.873 75.4907 401.534 74.8827 402.068 74.072L404.404 75.544C403.742 76.7173 402.804 77.624 401.588 78.264C400.393 78.8827 399.028 79.192 397.492 79.192ZM417.09 78.008C416.642 78.392 416.087 78.6907 415.426 78.904C414.765 79.096 414.082 79.192 413.378 79.192C411.671 79.192 410.349 78.7333 409.41 77.816C408.471 76.8987 408.002 75.5867 408.002 73.88V58.328H411.074V62.04H415.938V64.568H411.074V73.752C411.074 74.6693 411.298 75.3733 411.746 75.864C412.215 76.3547 412.877 76.6 413.73 76.6C414.669 76.6 415.469 76.3333 416.13 75.8L417.09 78.008ZM420.787 62.04H423.859V79H420.787V62.04ZM422.323 58.776C421.726 58.776 421.224 58.584 420.819 58.2C420.435 57.816 420.243 57.3467 420.243 56.792C420.243 56.2373 420.435 55.768 420.819 55.384C421.224 54.9787 421.726 54.776 422.323 54.776C422.92 54.776 423.411 54.968 423.795 55.352C424.2 55.7147 424.403 56.1733 424.403 56.728C424.403 57.304 424.2 57.7947 423.795 58.2C423.411 58.584 422.92 58.776 422.323 58.776ZM436.989 79.192C435.303 79.192 433.789 78.8187 432.445 78.072C431.101 77.3253 430.045 76.3013 429.277 75C428.53 73.6773 428.157 72.184 428.157 70.52C428.157 68.856 428.53 67.3733 429.277 66.072C430.045 64.7493 431.101 63.7253 432.445 63C433.789 62.2533 435.303 61.88 436.989 61.88C438.674 61.88 440.178 62.2533 441.501 63C442.845 63.7253 443.89 64.7493 444.637 66.072C445.405 67.3733 445.789 68.856 445.789 70.52C445.789 72.184 445.405 73.6773 444.637 75C443.89 76.3013 442.845 77.3253 441.501 78.072C440.178 78.8187 438.674 79.192 436.989 79.192ZM436.989 76.504C438.077 76.504 439.047 76.2587 439.901 75.768C440.775 75.256 441.458 74.552 441.949 73.656C442.439 72.7387 442.685 71.6933 442.685 70.52C442.685 69.3467 442.439 68.312 441.949 67.416C441.458 66.4987 440.775 65.7947 439.901 65.304C439.047 64.8133 438.077 64.568 436.989 64.568C435.901 64.568 434.919 64.8133 434.045 65.304C433.191 65.7947 432.509 66.4987 431.997 67.416C431.506 68.312 431.261 69.3467 431.261 70.52C431.261 71.6933 431.506 72.7387 431.997 73.656C432.509 74.552 433.191 75.256 434.045 75.768C434.919 76.2587 435.901 76.504 436.989 76.504ZM459.093 61.88C461.248 61.88 462.954 62.5093 464.213 63.768C465.493 65.0053 466.133 66.8293 466.133 69.24V79H463.061V69.592C463.061 67.9493 462.666 66.712 461.877 65.88C461.088 65.048 459.957 64.632 458.485 64.632C456.821 64.632 455.509 65.1227 454.549 66.104C453.589 67.064 453.109 68.4507 453.109 70.264V79H450.037V62.04H452.981V64.6C453.6 63.7253 454.432 63.0533 455.477 62.584C456.544 62.1147 457.749 61.88 459.093 61.88ZM487.912 62.04V79H484.968V76.312C484.285 77.2507 483.421 77.9653 482.376 78.456C481.331 78.9467 480.179 79.192 478.92 79.192C477.277 79.192 475.805 78.8293 474.504 78.104C473.203 77.3787 472.179 76.3653 471.432 75.064C470.707 73.7413 470.344 72.2267 470.344 70.52C470.344 68.8133 470.707 67.3093 471.432 66.008C472.179 64.7067 473.203 63.6933 474.504 62.968C475.805 62.2427 477.277 61.88 478.92 61.88C480.136 61.88 481.256 62.1147 482.28 62.584C483.304 63.032 484.157 63.704 484.84 64.6V62.04H487.912ZM479.176 76.504C480.243 76.504 481.213 76.2587 482.088 75.768C482.963 75.256 483.645 74.552 484.136 73.656C484.627 72.7387 484.872 71.6933 484.872 70.52C484.872 69.3467 484.627 68.312 484.136 67.416C483.645 66.4987 482.963 65.7947 482.088 65.304C481.213 64.8133 480.243 64.568 479.176 64.568C478.088 64.568 477.107 64.8133 476.232 65.304C475.379 65.7947 474.696 66.4987 474.184 67.416C473.693 68.312 473.448 69.3467 473.448 70.52C473.448 71.6933 473.693 72.7387 474.184 73.656C474.696 74.552 475.379 75.256 476.232 75.768C477.107 76.2587 478.088 76.504 479.176 76.504ZM498.877 79.192C497.234 79.192 495.965 78.744 495.069 77.848C494.173 76.9307 493.725 75.6507 493.725 74.008V55.256H496.797V73.752C496.797 74.6693 497.01 75.3733 497.437 75.864C497.885 76.3547 498.546 76.6 499.421 76.6C499.954 76.6 500.455 76.4933 500.925 76.28L501.085 78.808C500.381 79.064 499.645 79.192 498.877 79.192ZM528.6 55.256V79H525.656V76.312C524.973 77.2507 524.109 77.9653 523.064 78.456C522.018 78.9467 520.866 79.192 519.608 79.192C517.965 79.192 516.493 78.8293 515.192 78.104C513.89 77.3787 512.866 76.3653 512.12 75.064C511.394 73.7413 511.032 72.2267 511.032 70.52C511.032 68.8133 511.394 67.3093 512.12 66.008C512.866 64.7067 513.89 63.6933 515.192 62.968C516.493 62.2427 517.965 61.88 519.608 61.88C520.824 61.88 521.944 62.1147 522.968 62.584C523.992 63.032 524.845 63.704 525.528 64.6V55.256H528.6ZM519.864 76.504C520.93 76.504 521.901 76.2587 522.776 75.768C523.65 75.256 524.333 74.552 524.824 73.656C525.314 72.7387 525.56 71.6933 525.56 70.52C525.56 69.3467 525.314 68.312 524.824 67.416C524.333 66.4987 523.65 65.7947 522.776 65.304C521.901 64.8133 520.93 64.568 519.864 64.568C518.776 64.568 517.794 64.8133 516.92 65.304C516.066 65.7947 515.384 66.4987 514.872 67.416C514.381 68.312 514.136 69.3467 514.136 70.52C514.136 71.6933 514.381 72.7387 514.872 73.656C515.384 74.552 516.066 75.256 516.92 75.768C517.794 76.2587 518.776 76.504 519.864 76.504ZM542.06 76.504C544.087 76.504 545.719 75.8213 546.956 74.456L548.62 76.44C547.873 77.336 546.924 78.0187 545.772 78.488C544.641 78.9573 543.372 79.192 541.964 79.192C540.172 79.192 538.583 78.8293 537.196 78.104C535.809 77.3573 534.732 76.3227 533.964 75C533.217 73.6773 532.844 72.184 532.844 70.52C532.844 68.8773 533.207 67.3947 533.932 66.072C534.679 64.7493 535.692 63.7253 536.972 63C538.273 62.2533 539.735 61.88 541.356 61.88C542.892 61.88 544.289 62.232 545.548 62.936C546.807 63.6187 547.809 64.5893 548.556 65.848C549.303 67.1067 549.687 68.5573 549.708 70.2L536.236 72.824C536.663 73.9973 537.377 74.904 538.38 75.544C539.404 76.184 540.631 76.504 542.06 76.504ZM541.356 64.472C540.289 64.472 539.329 64.7173 538.476 65.208C537.644 65.6987 536.993 66.392 536.524 67.288C536.055 68.1627 535.82 69.1867 535.82 70.36V70.68L546.668 68.632C546.391 67.3947 545.772 66.392 544.812 65.624C543.852 64.856 542.7 64.472 541.356 64.472ZM558.87 79.192C557.483 79.192 556.15 79.0107 554.87 78.648C553.59 78.264 552.587 77.784 551.862 77.208L553.142 74.776C553.888 75.3093 554.795 75.736 555.862 76.056C556.928 76.376 558.006 76.536 559.094 76.536C561.782 76.536 563.126 75.768 563.126 74.232C563.126 73.72 562.944 73.3147 562.582 73.016C562.219 72.7173 561.76 72.504 561.206 72.376C560.672 72.2267 559.904 72.0667 558.902 71.896C557.536 71.6827 556.416 71.4373 555.542 71.16C554.688 70.8827 553.952 70.4133 553.334 69.752C552.715 69.0907 552.406 68.1627 552.406 66.968C552.406 65.432 553.046 64.2053 554.326 63.288C555.606 62.3493 557.323 61.88 559.478 61.88C560.608 61.88 561.739 62.0187 562.87 62.296C564 62.5733 564.928 62.9467 565.654 63.416L564.342 65.848C562.955 64.952 561.323 64.504 559.446 64.504C558.144 64.504 557.152 64.7173 556.47 65.144C555.787 65.5707 555.446 66.136 555.446 66.84C555.446 67.3947 555.638 67.832 556.022 68.152C556.406 68.472 556.875 68.7067 557.43 68.856C558.006 69.0053 558.806 69.176 559.83 69.368C561.195 69.6027 562.294 69.8587 563.126 70.136C563.979 70.392 564.704 70.84 565.302 71.48C565.899 72.12 566.198 73.016 566.198 74.168C566.198 75.704 565.536 76.9307 564.214 77.848C562.912 78.744 561.131 79.192 558.87 79.192ZM570.037 62.04H573.109V79H570.037V62.04ZM571.573 58.776C570.976 58.776 570.474 58.584 570.069 58.2C569.685 57.816 569.493 57.3467 569.493 56.792C569.493 56.2373 569.685 55.768 570.069 55.384C570.474 54.9787 570.976 54.776 571.573 54.776C572.17 54.776 572.661 54.968 573.045 55.352C573.45 55.7147 573.653 56.1733 573.653 56.728C573.653 57.304 573.45 57.7947 573.045 58.2C572.661 58.584 572.17 58.776 571.573 58.776ZM595.199 62.04V76.696C595.199 79.6613 594.463 81.848 592.991 83.256C591.519 84.6853 589.321 85.4 586.399 85.4C584.799 85.4 583.273 85.176 581.823 84.728C580.372 84.3013 579.199 83.6827 578.303 82.872L579.775 80.504C580.564 81.1867 581.535 81.72 582.687 82.104C583.86 82.5093 585.065 82.712 586.303 82.712C588.287 82.712 589.748 82.2427 590.687 81.304C591.647 80.3653 592.127 78.936 592.127 77.016V75.672C591.401 76.5467 590.505 77.208 589.439 77.656C588.393 78.0827 587.252 78.296 586.015 78.296C584.393 78.296 582.921 77.9547 581.599 77.272C580.297 76.568 579.273 75.5973 578.527 74.36C577.78 73.1013 577.407 71.672 577.407 70.072C577.407 68.472 577.78 67.0533 578.527 65.816C579.273 64.5573 580.297 63.5867 581.599 62.904C582.921 62.2213 584.393 61.88 586.015 61.88C587.295 61.88 588.479 62.1147 589.567 62.584C590.676 63.0533 591.583 63.7467 592.287 64.664V62.04H595.199ZM586.367 75.608C587.476 75.608 588.468 75.3733 589.343 74.904C590.239 74.4347 590.932 73.784 591.423 72.952C591.935 72.0987 592.191 71.1387 592.191 70.072C592.191 68.4293 591.647 67.1067 590.559 66.104C589.471 65.08 588.073 64.568 586.367 64.568C584.639 64.568 583.231 65.08 582.143 66.104C581.055 67.1067 580.511 68.4293 580.511 70.072C580.511 71.1387 580.756 72.0987 581.247 72.952C581.759 73.784 582.452 74.4347 583.327 74.904C584.223 75.3733 585.236 75.608 586.367 75.608ZM610.124 61.88C612.279 61.88 613.986 62.5093 615.244 63.768C616.524 65.0053 617.164 66.8293 617.164 69.24V79H614.092V69.592C614.092 67.9493 613.698 66.712 612.908 65.88C612.119 65.048 610.988 64.632 609.516 64.632C607.852 64.632 606.54 65.1227 605.58 66.104C604.62 67.064 604.14 68.4507 604.14 70.264V79H601.068V62.04H604.012V64.6C604.631 63.7253 605.463 63.0533 606.508 62.584C607.575 62.1147 608.78 61.88 610.124 61.88ZM630.591 76.504C632.618 76.504 634.25 75.8213 635.487 74.456L637.151 76.44C636.405 77.336 635.455 78.0187 634.303 78.488C633.173 78.9573 631.903 79.192 630.495 79.192C628.703 79.192 627.114 78.8293 625.727 78.104C624.341 77.3573 623.263 76.3227 622.495 75C621.749 73.6773 621.375 72.184 621.375 70.52C621.375 68.8773 621.738 67.3947 622.463 66.072C623.21 64.7493 624.223 63.7253 625.503 63C626.805 62.2533 628.266 61.88 629.887 61.88C631.423 61.88 632.821 62.232 634.079 62.936C635.338 63.6187 636.341 64.5893 637.087 65.848C637.834 67.1067 638.218 68.5573 638.239 70.2L624.767 72.824C625.194 73.9973 625.909 74.904 626.911 75.544C627.935 76.184 629.162 76.504 630.591 76.504ZM629.887 64.472C628.821 64.472 627.861 64.7173 627.007 65.208C626.175 65.6987 625.525 66.392 625.055 67.288C624.586 68.1627 624.351 69.1867 624.351 70.36V70.68L635.199 68.632C634.922 67.3947 634.303 66.392 633.343 65.624C632.383 64.856 631.231 64.472 629.887 64.472ZM645.481 64.888C646.014 63.9067 646.804 63.16 647.849 62.648C648.894 62.136 650.164 61.88 651.657 61.88V64.856C651.486 64.8347 651.252 64.824 650.953 64.824C649.289 64.824 647.977 65.3253 647.017 66.328C646.078 67.3093 645.609 68.7173 645.609 70.552V79H642.537V62.04H645.481V64.888Z" fill="#434343"/>
<rect x="7.96448" y="143.364" width="9" height="9" transform="rotate(-45 7.96448 143.364)" fill="#9746FF"/>
<rect y="151.47" width="9" height="9" transform="rotate(-45 0 151.47)" fill="#9746FF"/>
<rect x="8" y="159.47" width="9" height="9" transform="rotate(-45 8 159.47)" fill="#9746FF"/>
<rect x="16" y="151.47" width="9" height="9" transform="rotate(-45 16 151.47)" fill="#9746FF"/>
<path d="M40.3984 142.545L44.6171 155.807H44.779L49.0063 142.545H53.0972L47.0802 160H42.3245L36.2989 142.545H40.3984ZM59.6192 160.256C58.2726 160.256 57.1136 159.983 56.142 159.438C55.1761 158.886 54.4317 158.108 53.909 157.102C53.3863 156.091 53.1249 154.895 53.1249 153.514C53.1249 152.168 53.3863 150.986 53.909 149.969C54.4317 148.952 55.1675 148.159 56.1164 147.591C57.0709 147.023 58.1903 146.739 59.4744 146.739C60.338 146.739 61.142 146.878 61.8863 147.156C62.6363 147.429 63.2897 147.841 63.8465 148.392C64.409 148.943 64.8465 149.636 65.159 150.472C65.4715 151.301 65.6278 152.273 65.6278 153.386V154.384H54.5738V152.134H62.2102C62.2102 151.611 62.0965 151.148 61.8692 150.744C61.642 150.341 61.3266 150.026 60.9232 149.798C60.5255 149.565 60.0624 149.449 59.534 149.449C58.9829 149.449 58.4942 149.577 58.0681 149.832C57.6476 150.082 57.3181 150.42 57.0795 150.847C56.8408 151.267 56.7187 151.736 56.713 152.253V154.392C56.713 155.04 56.8323 155.599 57.0709 156.071C57.3153 156.543 57.659 156.906 58.1022 157.162C58.5454 157.418 59.0709 157.545 59.6789 157.545C60.0823 157.545 60.4516 157.489 60.7869 157.375C61.1221 157.261 61.409 157.091 61.6476 156.864C61.8863 156.636 62.0681 156.358 62.1931 156.028L65.5511 156.25C65.3806 157.057 65.0312 157.761 64.5028 158.364C63.98 158.96 63.3039 159.426 62.4744 159.761C61.6505 160.091 60.6988 160.256 59.6192 160.256ZM67.9971 160V146.909H71.517V149.193H71.6533C71.892 148.381 72.2925 147.767 72.855 147.352C73.4175 146.932 74.0653 146.722 74.7982 146.722C74.98 146.722 75.1761 146.733 75.3863 146.756C75.5965 146.778 75.7812 146.81 75.9403 146.849V150.071C75.7698 150.02 75.534 149.974 75.2329 149.935C74.9317 149.895 74.6562 149.875 74.4062 149.875C73.8721 149.875 73.3948 149.991 72.9744 150.224C72.5596 150.452 72.23 150.77 71.9857 151.179C71.7471 151.588 71.6278 152.06 71.6278 152.594V160H67.9971ZM77.8856 160V142.545H81.5163V149.108H81.6271C81.7861 148.756 82.0163 148.398 82.3174 148.034C82.6242 147.665 83.0219 147.358 83.5106 147.114C84.0049 146.864 84.6185 146.739 85.3515 146.739C86.306 146.739 87.1867 146.989 87.9935 147.489C88.8003 147.983 89.4452 148.73 89.9282 149.73C90.4111 150.724 90.6526 151.972 90.6526 153.472C90.6526 154.932 90.4168 156.165 89.9452 157.17C89.4793 158.17 88.843 158.929 88.0361 159.446C87.235 159.957 86.3373 160.213 85.343 160.213C84.6384 160.213 84.039 160.097 83.5447 159.864C83.056 159.631 82.6555 159.338 82.343 158.986C82.0305 158.628 81.7918 158.267 81.6271 157.903H81.4651V160H77.8856ZM81.4396 153.455C81.4396 154.233 81.5475 154.912 81.7634 155.491C81.9793 156.071 82.2918 156.523 82.7009 156.847C83.11 157.165 83.6072 157.324 84.1924 157.324C84.7833 157.324 85.2833 157.162 85.6924 156.838C86.1015 156.509 86.4111 156.054 86.6214 155.474C86.8373 154.889 86.9452 154.216 86.9452 153.455C86.9452 152.699 86.8401 152.034 86.6299 151.46C86.4197 150.886 86.11 150.437 85.7009 150.114C85.2918 149.79 84.789 149.628 84.1924 149.628C83.6015 149.628 83.1015 149.784 82.6924 150.097C82.289 150.409 81.9793 150.852 81.7634 151.426C81.5475 152 81.4396 152.676 81.4396 153.455Z" fill="#9746FF"/>
<rect x="0.75" y="175.75" width="669.5" height="108.5" stroke="#9746FF" stroke-width="1.5" stroke-dasharray="10 10"/>
<path d="M47.5892 220.216V223H33.2852V220.216H39.1412V203.384H33.6372V200.6H42.3412V220.216H47.5892ZM54.7314 223.192C54.1341 223.192 53.6221 222.989 53.1954 222.584C52.7688 222.157 52.5554 221.624 52.5554 220.984C52.5554 220.365 52.7688 219.853 53.1954 219.448C53.6221 219.021 54.1341 218.808 54.7314 218.808C55.3288 218.808 55.8301 219.011 56.2354 219.416C56.6408 219.821 56.8434 220.344 56.8434 220.984C56.8434 221.624 56.6301 222.157 56.2034 222.584C55.7981 222.989 55.3074 223.192 54.7314 223.192ZM87.912 199.256V223H84.968V220.312C84.2853 221.251 83.4213 221.965 82.376 222.456C81.3307 222.947 80.1787 223.192 78.92 223.192C77.2773 223.192 75.8053 222.829 74.504 222.104C73.2027 221.379 72.1787 220.365 71.432 219.064C70.7067 217.741 70.344 216.227 70.344 214.52C70.344 212.813 70.7067 211.309 71.432 210.008C72.1787 208.707 73.2027 207.693 74.504 206.968C75.8053 206.243 77.2773 205.88 78.92 205.88C80.136 205.88 81.256 206.115 82.28 206.584C83.304 207.032 84.1573 207.704 84.84 208.6V199.256H87.912ZM79.176 220.504C80.2427 220.504 81.2133 220.259 82.088 219.768C82.9627 219.256 83.6453 218.552 84.136 217.656C84.6267 216.739 84.872 215.693 84.872 214.52C84.872 213.347 84.6267 212.312 84.136 211.416C83.6453 210.499 82.9627 209.795 82.088 209.304C81.2133 208.813 80.2427 208.568 79.176 208.568C78.088 208.568 77.1067 208.813 76.232 209.304C75.3787 209.795 74.696 210.499 74.184 211.416C73.6933 212.312 73.448 213.347 73.448 214.52C73.448 215.693 73.6933 216.739 74.184 217.656C74.696 218.552 75.3787 219.256 76.232 219.768C77.1067 220.259 78.088 220.504 79.176 220.504ZM101.373 220.504C103.399 220.504 105.031 219.821 106.269 218.456L107.933 220.44C107.186 221.336 106.237 222.019 105.085 222.488C103.954 222.957 102.685 223.192 101.277 223.192C99.4845 223.192 97.8952 222.829 96.5085 222.104C95.1218 221.357 94.0445 220.323 93.2765 219C92.5298 217.677 92.1565 216.184 92.1565 214.52C92.1565 212.877 92.5192 211.395 93.2445 210.072C93.9912 208.749 95.0045 207.725 96.2845 207C97.5858 206.253 99.0472 205.88 100.669 205.88C102.205 205.88 103.602 206.232 104.861 206.936C106.119 207.619 107.122 208.589 107.869 209.848C108.615 211.107 108.999 212.557 109.021 214.2L95.5485 216.824C95.9752 217.997 96.6898 218.904 97.6925 219.544C98.7165 220.184 99.9432 220.504 101.373 220.504ZM100.669 208.472C99.6018 208.472 98.6418 208.717 97.7885 209.208C96.9565 209.699 96.3058 210.392 95.8365 211.288C95.3672 212.163 95.1325 213.187 95.1325 214.36V214.68L105.981 212.632C105.703 211.395 105.085 210.392 104.125 209.624C103.165 208.856 102.013 208.472 100.669 208.472ZM118.182 223.192C116.796 223.192 115.462 223.011 114.182 222.648C112.902 222.264 111.9 221.784 111.174 221.208L112.454 218.776C113.201 219.309 114.108 219.736 115.174 220.056C116.241 220.376 117.318 220.536 118.406 220.536C121.094 220.536 122.438 219.768 122.438 218.232C122.438 217.72 122.257 217.315 121.894 217.016C121.532 216.717 121.073 216.504 120.518 216.376C119.985 216.227 119.217 216.067 118.214 215.896C116.849 215.683 115.729 215.437 114.854 215.16C114.001 214.883 113.265 214.413 112.646 213.752C112.028 213.091 111.718 212.163 111.718 210.968C111.718 209.432 112.358 208.205 113.638 207.288C114.918 206.349 116.636 205.88 118.79 205.88C119.921 205.88 121.052 206.019 122.182 206.296C123.313 206.573 124.241 206.947 124.966 207.416L123.654 209.848C122.268 208.952 120.636 208.504 118.758 208.504C117.457 208.504 116.465 208.717 115.782 209.144C115.1 209.571 114.758 210.136 114.758 210.84C114.758 211.395 114.95 211.832 115.334 212.152C115.718 212.472 116.188 212.707 116.742 212.856C117.318 213.005 118.118 213.176 119.142 213.368C120.508 213.603 121.606 213.859 122.438 214.136C123.292 214.392 124.017 214.84 124.614 215.48C125.212 216.12 125.51 217.016 125.51 218.168C125.51 219.704 124.849 220.931 123.526 221.848C122.225 222.744 120.444 223.192 118.182 223.192ZM129.35 206.04H132.422V223H129.35V206.04ZM130.886 202.776C130.288 202.776 129.787 202.584 129.382 202.2C128.998 201.816 128.806 201.347 128.806 200.792C128.806 200.237 128.998 199.768 129.382 199.384C129.787 198.979 130.288 198.776 130.886 198.776C131.483 198.776 131.974 198.968 132.358 199.352C132.763 199.715 132.966 200.173 132.966 200.728C132.966 201.304 132.763 201.795 132.358 202.2C131.974 202.584 131.483 202.776 130.886 202.776ZM154.511 206.04V220.696C154.511 223.661 153.775 225.848 152.303 227.256C150.831 228.685 148.634 229.4 145.711 229.4C144.111 229.4 142.586 229.176 141.135 228.728C139.684 228.301 138.511 227.683 137.615 226.872L139.087 224.504C139.876 225.187 140.847 225.72 141.999 226.104C143.172 226.509 144.378 226.712 145.615 226.712C147.599 226.712 149.06 226.243 149.999 225.304C150.959 224.365 151.439 222.936 151.439 221.016V219.672C150.714 220.547 149.818 221.208 148.751 221.656C147.706 222.083 146.564 222.296 145.327 222.296C143.706 222.296 142.234 221.955 140.911 221.272C139.61 220.568 138.586 219.597 137.839 218.36C137.092 217.101 136.719 215.672 136.719 214.072C136.719 212.472 137.092 211.053 137.839 209.816C138.586 208.557 139.61 207.587 140.911 206.904C142.234 206.221 143.706 205.88 145.327 205.88C146.607 205.88 147.791 206.115 148.879 206.584C149.988 207.053 150.895 207.747 151.599 208.664V206.04H154.511ZM145.679 219.608C146.788 219.608 147.78 219.373 148.655 218.904C149.551 218.435 150.244 217.784 150.735 216.952C151.247 216.099 151.503 215.139 151.503 214.072C151.503 212.429 150.959 211.107 149.871 210.104C148.783 209.08 147.386 208.568 145.679 208.568C143.951 208.568 142.543 209.08 141.455 210.104C140.367 211.107 139.823 212.429 139.823 214.072C139.823 215.139 140.068 216.099 140.559 216.952C141.071 217.784 141.764 218.435 142.639 218.904C143.535 219.373 144.548 219.608 145.679 219.608ZM169.437 205.88C171.591 205.88 173.298 206.509 174.557 207.768C175.837 209.005 176.477 210.829 176.477 213.24V223H173.405V213.592C173.405 211.949 173.01 210.712 172.221 209.88C171.431 209.048 170.301 208.632 168.829 208.632C167.165 208.632 165.853 209.123 164.893 210.104C163.933 211.064 163.453 212.451 163.453 214.264V223H160.381V206.04H163.325V208.6C163.943 207.725 164.775 207.053 165.821 206.584C166.887 206.115 168.093 205.88 169.437 205.88ZM206.564 206.04V223H203.652V220.44C203.033 221.315 202.212 221.997 201.188 222.488C200.185 222.957 199.086 223.192 197.892 223.192C195.63 223.192 193.849 222.573 192.548 221.336C191.246 220.077 190.596 218.232 190.596 215.8V206.04H193.668V215.448C193.668 217.091 194.062 218.339 194.852 219.192C195.641 220.024 196.772 220.44 198.244 220.44C199.865 220.44 201.145 219.949 202.084 218.968C203.022 217.987 203.492 216.6 203.492 214.808V206.04H206.564ZM217.276 223.192C215.889 223.192 214.556 223.011 213.276 222.648C211.996 222.264 210.993 221.784 210.268 221.208L211.548 218.776C212.295 219.309 213.201 219.736 214.268 220.056C215.335 220.376 216.412 220.536 217.5 220.536C220.188 220.536 221.532 219.768 221.532 218.232C221.532 217.72 221.351 217.315 220.988 217.016C220.625 216.717 220.167 216.504 219.612 216.376C219.079 216.227 218.311 216.067 217.308 215.896C215.943 215.683 214.823 215.437 213.948 215.16C213.095 214.883 212.359 214.413 211.74 213.752C211.121 213.091 210.812 212.163 210.812 210.968C210.812 209.432 211.452 208.205 212.732 207.288C214.012 206.349 215.729 205.88 217.884 205.88C219.015 205.88 220.145 206.019 221.276 206.296C222.407 206.573 223.335 206.947 224.06 207.416L222.748 209.848C221.361 208.952 219.729 208.504 217.852 208.504C216.551 208.504 215.559 208.717 214.876 209.144C214.193 209.571 213.852 210.136 213.852 210.84C213.852 211.395 214.044 211.832 214.428 212.152C214.812 212.472 215.281 212.707 215.836 212.856C216.412 213.005 217.212 213.176 218.236 213.368C219.601 213.603 220.7 213.859 221.532 214.136C222.385 214.392 223.111 214.84 223.708 215.48C224.305 216.12 224.604 217.016 224.604 218.168C224.604 219.704 223.943 220.931 222.62 221.848C221.319 222.744 219.537 223.192 217.276 223.192ZM236.091 220.504C238.118 220.504 239.75 219.821 240.987 218.456L242.651 220.44C241.905 221.336 240.955 222.019 239.803 222.488C238.673 222.957 237.403 223.192 235.995 223.192C234.203 223.192 232.614 222.829 231.227 222.104C229.841 221.357 228.763 220.323 227.995 219C227.249 217.677 226.875 216.184 226.875 214.52C226.875 212.877 227.238 211.395 227.963 210.072C228.71 208.749 229.723 207.725 231.003 207C232.305 206.253 233.766 205.88 235.387 205.88C236.923 205.88 238.321 206.232 239.579 206.936C240.838 207.619 241.841 208.589 242.587 209.848C243.334 211.107 243.718 212.557 243.739 214.2L230.267 216.824C230.694 217.997 231.409 218.904 232.411 219.544C233.435 220.184 234.662 220.504 236.091 220.504ZM235.387 208.472C234.321 208.472 233.361 208.717 232.507 209.208C231.675 209.699 231.025 210.392 230.555 211.288C230.086 212.163 229.851 213.187 229.851 214.36V214.68L240.699 212.632C240.422 211.395 239.803 210.392 238.843 209.624C237.883 208.856 236.731 208.472 235.387 208.472ZM250.981 208.888C251.514 207.907 252.304 207.16 253.349 206.648C254.394 206.136 255.664 205.88 257.157 205.88V208.856C256.986 208.835 256.752 208.824 256.453 208.824C254.789 208.824 253.477 209.325 252.517 210.328C251.578 211.309 251.109 212.717 251.109 214.552V223H248.037V206.04H250.981V208.888ZM277.404 220.504C279.43 220.504 281.062 219.821 282.3 218.456L283.964 220.44C283.217 221.336 282.268 222.019 281.116 222.488C279.985 222.957 278.716 223.192 277.308 223.192C275.516 223.192 273.926 222.829 272.54 222.104C271.153 221.357 270.076 220.323 269.308 219C268.561 217.677 268.188 216.184 268.188 214.52C268.188 212.877 268.55 211.395 269.276 210.072C270.022 208.749 271.036 207.725 272.316 207C273.617 206.253 275.078 205.88 276.7 205.88C278.236 205.88 279.633 206.232 280.892 206.936C282.15 207.619 283.153 208.589 283.9 209.848C284.646 211.107 285.03 212.557 285.052 214.2L271.58 216.824C272.006 217.997 272.721 218.904 273.724 219.544C274.748 220.184 275.974 220.504 277.404 220.504ZM276.7 208.472C275.633 208.472 274.673 208.717 273.82 209.208C272.988 209.699 272.337 210.392 271.868 211.288C271.398 212.163 271.164 213.187 271.164 214.36V214.68L282.012 212.632C281.734 211.395 281.116 210.392 280.156 209.624C279.196 208.856 278.044 208.472 276.7 208.472ZM299.697 223L294.801 216.504L289.841 223H286.417L293.105 214.328L286.737 206.04H290.161L294.833 212.152L299.473 206.04H302.833L296.433 214.328L303.185 223H299.697ZM315.529 205.88C317.172 205.88 318.644 206.243 319.945 206.968C321.246 207.693 322.26 208.707 322.985 210.008C323.732 211.309 324.105 212.813 324.105 214.52C324.105 216.227 323.732 217.741 322.985 219.064C322.26 220.365 321.246 221.379 319.945 222.104C318.644 222.829 317.172 223.192 315.529 223.192C314.313 223.192 313.193 222.957 312.169 222.488C311.166 222.019 310.313 221.336 309.609 220.44V229.208H306.537V206.04H309.481V208.728C310.164 207.789 311.028 207.085 312.073 206.616C313.118 206.125 314.27 205.88 315.529 205.88ZM315.273 220.504C316.361 220.504 317.332 220.259 318.185 219.768C319.06 219.256 319.742 218.552 320.233 217.656C320.745 216.739 321.001 215.693 321.001 214.52C321.001 213.347 320.745 212.312 320.233 211.416C319.742 210.499 319.06 209.795 318.185 209.304C317.332 208.813 316.361 208.568 315.273 208.568C314.206 208.568 313.236 208.824 312.361 209.336C311.508 209.827 310.825 210.52 310.313 211.416C309.822 212.312 309.577 213.347 309.577 214.52C309.577 215.693 309.822 216.739 310.313 217.656C310.804 218.552 311.486 219.256 312.361 219.768C313.236 220.259 314.206 220.504 315.273 220.504ZM335.998 220.504C338.024 220.504 339.656 219.821 340.894 218.456L342.558 220.44C341.811 221.336 340.862 222.019 339.71 222.488C338.579 222.957 337.31 223.192 335.902 223.192C334.11 223.192 332.52 222.829 331.134 222.104C329.747 221.357 328.67 220.323 327.902 219C327.155 217.677 326.782 216.184 326.782 214.52C326.782 212.877 327.144 211.395 327.87 210.072C328.616 208.749 329.63 207.725 330.91 207C332.211 206.253 333.672 205.88 335.294 205.88C336.83 205.88 338.227 206.232 339.486 206.936C340.744 207.619 341.747 208.589 342.494 209.848C343.24 211.107 343.624 212.557 343.646 214.2L330.174 216.824C330.6 217.997 331.315 218.904 332.318 219.544C333.342 220.184 334.568 220.504 335.998 220.504ZM335.294 208.472C334.227 208.472 333.267 208.717 332.414 209.208C331.582 209.699 330.931 210.392 330.462 211.288C329.992 212.163 329.758 213.187 329.758 214.36V214.68L340.606 212.632C340.328 211.395 339.71 210.392 338.75 209.624C337.79 208.856 336.638 208.472 335.294 208.472ZM350.887 208.888C351.421 207.907 352.21 207.16 353.255 206.648C354.301 206.136 355.57 205.88 357.063 205.88V208.856C356.893 208.835 356.658 208.824 356.359 208.824C354.695 208.824 353.383 209.325 352.423 210.328C351.485 211.309 351.015 212.717 351.015 214.552V223H347.943V206.04H350.887V208.888ZM360.85 206.04H363.922V223H360.85V206.04ZM362.386 202.776C361.788 202.776 361.287 202.584 360.882 202.2C360.498 201.816 360.306 201.347 360.306 200.792C360.306 200.237 360.498 199.768 360.882 199.384C361.287 198.979 361.788 198.776 362.386 198.776C362.983 198.776 363.474 198.968 363.858 199.352C364.263 199.715 364.466 200.173 364.466 200.728C364.466 201.304 364.263 201.795 363.858 202.2C363.474 202.584 362.983 202.776 362.386 202.776ZM377.435 220.504C379.462 220.504 381.094 219.821 382.331 218.456L383.995 220.44C383.248 221.336 382.299 222.019 381.147 222.488C380.016 222.957 378.747 223.192 377.339 223.192C375.547 223.192 373.958 222.829 372.571 222.104C371.184 221.357 370.107 220.323 369.339 219C368.592 217.677 368.219 216.184 368.219 214.52C368.219 212.877 368.582 211.395 369.307 210.072C370.054 208.749 371.067 207.725 372.347 207C373.648 206.253 375.11 205.88 376.731 205.88C378.267 205.88 379.664 206.232 380.923 206.936C382.182 207.619 383.184 208.589 383.931 209.848C384.678 211.107 385.062 212.557 385.083 214.2L371.611 216.824C372.038 217.997 372.752 218.904 373.755 219.544C374.779 220.184 376.006 220.504 377.435 220.504ZM376.731 208.472C375.664 208.472 374.704 208.717 373.851 209.208C373.019 209.699 372.368 210.392 371.899 211.288C371.43 212.163 371.195 213.187 371.195 214.36V214.68L382.043 212.632C381.766 211.395 381.147 210.392 380.187 209.624C379.227 208.856 378.075 208.472 376.731 208.472ZM398.437 205.88C400.591 205.88 402.298 206.509 403.557 207.768C404.837 209.005 405.477 210.829 405.477 213.24V223H402.405V213.592C402.405 211.949 402.01 210.712 401.221 209.88C400.431 209.048 399.301 208.632 397.829 208.632C396.165 208.632 394.853 209.123 393.893 210.104C392.933 211.064 392.453 212.451 392.453 214.264V223H389.381V206.04H392.325V208.6C392.943 207.725 393.775 207.053 394.821 206.584C395.887 206.115 397.093 205.88 398.437 205.88ZM418.648 223.192C416.92 223.192 415.373 222.819 414.008 222.072C412.664 221.325 411.608 220.301 410.84 219C410.072 217.677 409.688 216.184 409.688 214.52C409.688 212.856 410.072 211.373 410.84 210.072C411.608 208.749 412.664 207.725 414.008 207C415.373 206.253 416.92 205.88 418.648 205.88C420.184 205.88 421.549 206.189 422.744 206.808C423.96 207.427 424.898 208.323 425.56 209.496L423.224 211C422.69 210.189 422.029 209.581 421.24 209.176C420.45 208.771 419.576 208.568 418.616 208.568C417.506 208.568 416.504 208.813 415.608 209.304C414.733 209.795 414.04 210.499 413.528 211.416C413.037 212.312 412.792 213.347 412.792 214.52C412.792 215.715 413.037 216.771 413.528 217.688C414.04 218.584 414.733 219.277 415.608 219.768C416.504 220.259 417.506 220.504 418.616 220.504C419.576 220.504 420.45 220.301 421.24 219.896C422.029 219.491 422.69 218.883 423.224 218.072L425.56 219.544C424.898 220.717 423.96 221.624 422.744 222.264C421.549 222.883 420.184 223.192 418.648 223.192ZM436.935 220.504C438.962 220.504 440.594 219.821 441.831 218.456L443.495 220.44C442.748 221.336 441.799 222.019 440.647 222.488C439.516 222.957 438.247 223.192 436.839 223.192C435.047 223.192 433.458 222.829 432.071 222.104C430.684 221.357 429.607 220.323 428.839 219C428.092 217.677 427.719 216.184 427.719 214.52C427.719 212.877 428.082 211.395 428.807 210.072C429.554 208.749 430.567 207.725 431.847 207C433.148 206.253 434.61 205.88 436.231 205.88C437.767 205.88 439.164 206.232 440.423 206.936C441.682 207.619 442.684 208.589 443.431 209.848C444.178 211.107 444.562 212.557 444.583 214.2L431.111 216.824C431.538 217.997 432.252 218.904 433.255 219.544C434.279 220.184 435.506 220.504 436.935 220.504ZM436.231 208.472C435.164 208.472 434.204 208.717 433.351 209.208C432.519 209.699 431.868 210.392 431.399 211.288C430.93 212.163 430.695 213.187 430.695 214.36V214.68L441.543 212.632C441.266 211.395 440.647 210.392 439.687 209.624C438.727 208.856 437.575 208.472 436.231 208.472ZM453.745 223.192C452.358 223.192 451.025 223.011 449.745 222.648C448.465 222.264 447.462 221.784 446.737 221.208L448.017 218.776C448.763 219.309 449.67 219.736 450.737 220.056C451.803 220.376 452.881 220.536 453.969 220.536C456.657 220.536 458.001 219.768 458.001 218.232C458.001 217.72 457.819 217.315 457.457 217.016C457.094 216.717 456.635 216.504 456.081 216.376C455.547 216.227 454.779 216.067 453.777 215.896C452.411 215.683 451.291 215.437 450.417 215.16C449.563 214.883 448.827 214.413 448.209 213.752C447.59 213.091 447.281 212.163 447.281 210.968C447.281 209.432 447.921 208.205 449.201 207.288C450.481 206.349 452.198 205.88 454.353 205.88C455.483 205.88 456.614 206.019 457.745 206.296C458.875 206.573 459.803 206.947 460.529 207.416L459.217 209.848C457.83 208.952 456.198 208.504 454.321 208.504C453.019 208.504 452.027 208.717 451.345 209.144C450.662 209.571 450.321 210.136 450.321 210.84C450.321 211.395 450.513 211.832 450.897 212.152C451.281 212.472 451.75 212.707 452.305 212.856C452.881 213.005 453.681 213.176 454.705 213.368C456.07 213.603 457.169 213.859 458.001 214.136C458.854 214.392 459.579 214.84 460.177 215.48C460.774 216.12 461.073 217.016 461.073 218.168C461.073 219.704 460.411 220.931 459.089 221.848C457.787 222.744 456.006 223.192 453.745 223.192ZM480.77 223.192C479.084 223.192 477.57 222.819 476.226 222.072C474.882 221.325 473.826 220.301 473.058 219C472.311 217.677 471.938 216.184 471.938 214.52C471.938 212.856 472.311 211.373 473.058 210.072C473.826 208.749 474.882 207.725 476.226 207C477.57 206.253 479.084 205.88 480.77 205.88C482.455 205.88 483.959 206.253 485.282 207C486.626 207.725 487.671 208.749 488.418 210.072C489.186 211.373 489.57 212.856 489.57 214.52C489.57 216.184 489.186 217.677 488.418 219C487.671 220.301 486.626 221.325 485.282 222.072C483.959 222.819 482.455 223.192 480.77 223.192ZM480.77 220.504C481.858 220.504 482.828 220.259 483.682 219.768C484.556 219.256 485.239 218.552 485.73 217.656C486.22 216.739 486.466 215.693 486.466 214.52C486.466 213.347 486.22 212.312 485.73 211.416C485.239 210.499 484.556 209.795 483.682 209.304C482.828 208.813 481.858 208.568 480.77 208.568C479.682 208.568 478.7 208.813 477.826 209.304C476.972 209.795 476.29 210.499 475.778 211.416C475.287 212.312 475.042 213.347 475.042 214.52C475.042 215.693 475.287 216.739 475.778 217.656C476.29 218.552 476.972 219.256 477.826 219.768C478.7 220.259 479.682 220.504 480.77 220.504ZM502.874 205.88C505.029 205.88 506.736 206.509 507.994 207.768C509.274 209.005 509.914 210.829 509.914 213.24V223H506.842V213.592C506.842 211.949 506.448 210.712 505.658 209.88C504.869 209.048 503.738 208.632 502.266 208.632C500.602 208.632 499.29 209.123 498.33 210.104C497.37 211.064 496.89 212.451 496.89 214.264V223H493.818V206.04H496.762V208.6C497.381 207.725 498.213 207.053 499.258 206.584C500.325 206.115 501.53 205.88 502.874 205.88ZM529.057 223.192C527.671 223.192 526.337 223.011 525.057 222.648C523.777 222.264 522.775 221.784 522.049 221.208L523.329 218.776C524.076 219.309 524.983 219.736 526.049 220.056C527.116 220.376 528.193 220.536 529.281 220.536C531.969 220.536 533.313 219.768 533.313 218.232C533.313 217.72 533.132 217.315 532.769 217.016C532.407 216.717 531.948 216.504 531.393 216.376C530.86 216.227 530.092 216.067 529.089 215.896C527.724 215.683 526.604 215.437 525.729 215.16C524.876 214.883 524.14 214.413 523.521 213.752C522.903 213.091 522.593 212.163 522.593 210.968C522.593 209.432 523.233 208.205 524.513 207.288C525.793 206.349 527.511 205.88 529.665 205.88C530.796 205.88 531.927 206.019 533.057 206.296C534.188 206.573 535.116 206.947 535.841 207.416L534.529 209.848C533.143 208.952 531.511 208.504 529.633 208.504C528.332 208.504 527.34 208.717 526.657 209.144C525.975 209.571 525.633 210.136 525.633 210.84C525.633 211.395 525.825 211.832 526.209 212.152C526.593 212.472 527.063 212.707 527.617 212.856C528.193 213.005 528.993 213.176 530.017 213.368C531.383 213.603 532.481 213.859 533.313 214.136C534.167 214.392 534.892 214.84 535.489 215.48C536.087 216.12 536.385 217.016 536.385 218.168C536.385 219.704 535.724 220.931 534.401 221.848C533.1 222.744 531.319 223.192 529.057 223.192ZM547.617 223.192C545.889 223.192 544.342 222.819 542.977 222.072C541.633 221.325 540.577 220.301 539.809 219C539.041 217.677 538.657 216.184 538.657 214.52C538.657 212.856 539.041 211.373 539.809 210.072C540.577 208.749 541.633 207.725 542.977 207C544.342 206.253 545.889 205.88 547.617 205.88C549.153 205.88 550.518 206.189 551.713 206.808C552.929 207.427 553.867 208.323 554.529 209.496L552.193 211C551.659 210.189 550.998 209.581 550.209 209.176C549.419 208.771 548.545 208.568 547.585 208.568C546.475 208.568 545.473 208.813 544.577 209.304C543.702 209.795 543.009 210.499 542.497 211.416C542.006 212.312 541.761 213.347 541.761 214.52C541.761 215.715 542.006 216.771 542.497 217.688C543.009 218.584 543.702 219.277 544.577 219.768C545.473 220.259 546.475 220.504 547.585 220.504C548.545 220.504 549.419 220.301 550.209 219.896C550.998 219.491 551.659 218.883 552.193 218.072L554.529 219.544C553.867 220.717 552.929 221.624 551.713 222.264C550.518 222.883 549.153 223.192 547.617 223.192ZM561.45 208.888C561.983 207.907 562.772 207.16 563.818 206.648C564.863 206.136 566.132 205.88 567.626 205.88V208.856C567.455 208.835 567.22 208.824 566.922 208.824C565.258 208.824 563.946 209.325 562.986 210.328C562.047 211.309 561.578 212.717 561.578 214.552V223H558.506V206.04H561.45V208.888ZM578.904 220.504C580.93 220.504 582.562 219.821 583.8 218.456L585.464 220.44C584.717 221.336 583.768 222.019 582.616 222.488C581.485 222.957 580.216 223.192 578.808 223.192C577.016 223.192 575.426 222.829 574.04 222.104C572.653 221.357 571.576 220.323 570.808 219C570.061 217.677 569.688 216.184 569.688 214.52C569.688 212.877 570.05 211.395 570.776 210.072C571.522 208.749 572.536 207.725 573.816 207C575.117 206.253 576.578 205.88 578.2 205.88C579.736 205.88 581.133 206.232 582.392 206.936C583.65 207.619 584.653 208.589 585.4 209.848C586.146 211.107 586.53 212.557 586.552 214.2L573.08 216.824C573.506 217.997 574.221 218.904 575.224 219.544C576.248 220.184 577.474 220.504 578.904 220.504ZM578.2 208.472C577.133 208.472 576.173 208.717 575.32 209.208C574.488 209.699 573.837 210.392 573.368 211.288C572.898 212.163 572.664 213.187 572.664 214.36V214.68L583.512 212.632C583.234 211.395 582.616 210.392 581.656 209.624C580.696 208.856 579.544 208.472 578.2 208.472ZM598.498 220.504C600.524 220.504 602.156 219.821 603.394 218.456L605.058 220.44C604.311 221.336 603.362 222.019 602.21 222.488C601.079 222.957 599.81 223.192 598.402 223.192C596.61 223.192 595.02 222.829 593.634 222.104C592.247 221.357 591.17 220.323 590.402 219C589.655 217.677 589.282 216.184 589.282 214.52C589.282 212.877 589.644 211.395 590.37 210.072C591.116 208.749 592.13 207.725 593.41 207C594.711 206.253 596.172 205.88 597.794 205.88C599.33 205.88 600.727 206.232 601.986 206.936C603.244 207.619 604.247 208.589 604.994 209.848C605.74 211.107 606.124 212.557 606.146 214.2L592.674 216.824C593.1 217.997 593.815 218.904 594.818 219.544C595.842 220.184 597.068 220.504 598.498 220.504ZM597.794 208.472C596.727 208.472 595.767 208.717 594.914 209.208C594.082 209.699 593.431 210.392 592.962 211.288C592.492 212.163 592.258 213.187 592.258 214.36V214.68L603.106 212.632C602.828 211.395 602.21 210.392 601.25 209.624C600.29 208.856 599.138 208.472 597.794 208.472ZM619.499 205.88C621.654 205.88 623.361 206.509 624.619 207.768C625.899 209.005 626.539 210.829 626.539 213.24V223H623.467V213.592C623.467 211.949 623.073 210.712 622.283 209.88C621.494 209.048 620.363 208.632 618.891 208.632C617.227 208.632 615.915 209.123 614.955 210.104C613.995 211.064 613.515 212.451 613.515 214.264V223H610.443V206.04H613.387V208.6C614.006 207.725 614.838 207.053 615.883 206.584C616.95 206.115 618.155 205.88 619.499 205.88ZM632.993 218.808C633.59 218.808 634.081 219.021 634.465 219.448C634.87 219.853 635.073 220.365 635.073 220.984C635.073 221.304 635.03 221.613 634.945 221.912C634.881 222.211 634.742 222.669 634.529 223.288L633.025 227.736H631.009L632.193 222.968C631.787 222.819 631.457 222.573 631.201 222.232C630.966 221.869 630.849 221.453 630.849 220.984C630.849 220.344 631.051 219.821 631.457 219.416C631.862 219.011 632.374 218.808 632.993 218.808ZM48.0372 259.216V262H31.4932V259.824L40.9332 251.024C42.0852 249.957 42.8639 249.04 43.2692 248.272C43.6745 247.483 43.8772 246.693 43.8772 245.904C43.8772 244.752 43.4399 243.845 42.5652 243.184C41.6905 242.523 40.4319 242.192 38.7892 242.192C36.1652 242.192 34.1599 242.992 32.7732 244.592L30.5972 242.736C31.5145 241.648 32.6985 240.816 34.1492 240.24C35.6212 239.643 37.2532 239.344 39.0452 239.344C41.5199 239.344 43.4719 239.909 44.9012 241.04C46.3519 242.171 47.0772 243.685 47.0772 245.584C47.0772 246.757 46.7999 247.877 46.2452 248.944C45.7119 250.011 44.6985 251.237 43.2052 252.624L36.1652 259.216H48.0372ZM54.7314 262.192C54.1341 262.192 53.6221 261.989 53.1954 261.584C52.7688 261.157 52.5554 260.624 52.5554 259.984C52.5554 259.365 52.7688 258.853 53.1954 258.448C53.6221 258.021 54.1341 257.808 54.7314 257.808C55.3288 257.808 55.8301 258.011 56.2354 258.416C56.6408 258.821 56.8434 259.344 56.8434 259.984C56.8434 260.624 56.6301 261.157 56.2034 261.584C55.7981 261.989 55.3074 262.192 54.7314 262.192ZM79.304 262.192C77.576 262.192 76.0293 261.819 74.664 261.072C73.32 260.325 72.264 259.301 71.496 258C70.728 256.677 70.344 255.184 70.344 253.52C70.344 251.856 70.728 250.373 71.496 249.072C72.264 247.749 73.32 246.725 74.664 246C76.0293 245.253 77.576 244.88 79.304 244.88C80.84 244.88 82.2053 245.189 83.4 245.808C84.616 246.427 85.5547 247.323 86.216 248.496L83.88 250C83.3467 249.189 82.6853 248.581 81.896 248.176C81.1067 247.771 80.232 247.568 79.272 247.568C78.1627 247.568 77.16 247.813 76.264 248.304C75.3893 248.795 74.696 249.499 74.184 250.416C73.6933 251.312 73.448 252.347 73.448 253.52C73.448 254.715 73.6933 255.771 74.184 256.688C74.696 257.584 75.3893 258.277 76.264 258.768C77.16 259.259 78.1627 259.504 79.272 259.504C80.232 259.504 81.1067 259.301 81.896 258.896C82.6853 258.491 83.3467 257.883 83.88 257.072L86.216 258.544C85.5547 259.717 84.616 260.624 83.4 261.264C82.2053 261.883 80.84 262.192 79.304 262.192ZM105.943 245.04V262H102.999V259.312C102.317 260.251 101.453 260.965 100.407 261.456C99.3619 261.947 98.2099 262.192 96.9513 262.192C95.3086 262.192 93.8366 261.829 92.5353 261.104C91.2339 260.379 90.2099 259.365 89.4633 258.064C88.7379 256.741 88.3753 255.227 88.3753 253.52C88.3753 251.813 88.7379 250.309 89.4633 249.008C90.2099 247.707 91.2339 246.693 92.5353 245.968C93.8366 245.243 95.3086 244.88 96.9513 244.88C98.1673 244.88 99.2873 245.115 100.311 245.584C101.335 246.032 102.189 246.704 102.871 247.6V245.04H105.943ZM97.2073 259.504C98.2739 259.504 99.2446 259.259 100.119 258.768C100.994 258.256 101.677 257.552 102.167 256.656C102.658 255.739 102.903 254.693 102.903 253.52C102.903 252.347 102.658 251.312 102.167 250.416C101.677 249.499 100.994 248.795 100.119 248.304C99.2446 247.813 98.2739 247.568 97.2073 247.568C96.1193 247.568 95.1379 247.813 94.2633 248.304C93.4099 248.795 92.7273 249.499 92.2153 250.416C91.7246 251.312 91.4793 252.347 91.4793 253.52C91.4793 254.693 91.7246 255.739 92.2153 256.656C92.7273 257.552 93.4099 258.256 94.2633 258.768C95.1379 259.259 96.1193 259.504 97.2073 259.504ZM120.748 244.88C122.39 244.88 123.862 245.243 125.164 245.968C126.465 246.693 127.478 247.707 128.204 249.008C128.95 250.309 129.324 251.813 129.324 253.52C129.324 255.227 128.95 256.741 128.204 258.064C127.478 259.365 126.465 260.379 125.164 261.104C123.862 261.829 122.39 262.192 120.748 262.192C119.532 262.192 118.412 261.957 117.388 261.488C116.385 261.019 115.532 260.336 114.828 259.44V268.208H111.756V245.04H114.7V247.728C115.382 246.789 116.246 246.085 117.292 245.616C118.337 245.125 119.489 244.88 120.748 244.88ZM120.492 259.504C121.58 259.504 122.55 259.259 123.404 258.768C124.278 258.256 124.961 257.552 125.452 256.656C125.964 255.739 126.22 254.693 126.22 253.52C126.22 252.347 125.964 251.312 125.452 250.416C124.961 249.499 124.278 248.795 123.404 248.304C122.55 247.813 121.58 247.568 120.492 247.568C119.425 247.568 118.454 247.824 117.58 248.336C116.726 248.827 116.044 249.52 115.532 250.416C115.041 251.312 114.796 252.347 114.796 253.52C114.796 254.693 115.041 255.739 115.532 256.656C116.022 257.552 116.705 258.256 117.58 258.768C118.454 259.259 119.425 259.504 120.492 259.504ZM142.496 261.008C142.048 261.392 141.494 261.691 140.832 261.904C140.171 262.096 139.488 262.192 138.784 262.192C137.078 262.192 135.755 261.733 134.816 260.816C133.878 259.899 133.408 258.587 133.408 256.88V241.328H136.48V245.04H141.344V247.568H136.48V256.752C136.48 257.669 136.704 258.373 137.152 258.864C137.622 259.355 138.283 259.6 139.136 259.6C140.075 259.6 140.875 259.333 141.536 258.8L142.496 261.008ZM162.001 245.04V262H159.089V259.44C158.471 260.315 157.649 260.997 156.625 261.488C155.623 261.957 154.524 262.192 153.329 262.192C151.068 262.192 149.287 261.573 147.985 260.336C146.684 259.077 146.033 257.232 146.033 254.8V245.04H149.105V254.448C149.105 256.091 149.5 257.339 150.289 258.192C151.079 259.024 152.209 259.44 153.681 259.44C155.303 259.44 156.583 258.949 157.521 257.968C158.46 256.987 158.929 255.6 158.929 253.808V245.04H162.001ZM170.794 247.888C171.327 246.907 172.116 246.16 173.161 245.648C174.207 245.136 175.476 244.88 176.97 244.88V247.856C176.799 247.835 176.564 247.824 176.266 247.824C174.602 247.824 173.29 248.325 172.33 249.328C171.391 250.309 170.922 251.717 170.922 253.552V262H167.85V245.04H170.794V247.888ZM188.248 259.504C190.274 259.504 191.906 258.821 193.144 257.456L194.808 259.44C194.061 260.336 193.112 261.019 191.96 261.488C190.829 261.957 189.56 262.192 188.152 262.192C186.36 262.192 184.77 261.829 183.384 261.104C181.997 260.357 180.92 259.323 180.152 258C179.405 256.677 179.032 255.184 179.032 253.52C179.032 251.877 179.394 250.395 180.12 249.072C180.866 247.749 181.88 246.725 183.16 246C184.461 245.253 185.922 244.88 187.544 244.88C189.08 244.88 190.477 245.232 191.736 245.936C192.994 246.619 193.997 247.589 194.744 248.848C195.49 250.107 195.874 251.557 195.896 253.2L182.424 255.824C182.85 256.997 183.565 257.904 184.568 258.544C185.592 259.184 186.818 259.504 188.248 259.504ZM187.544 247.472C186.477 247.472 185.517 247.717 184.664 248.208C183.832 248.699 183.181 249.392 182.712 250.288C182.242 251.163 182.008 252.187 182.008 253.36V253.68L192.856 251.632C192.578 250.395 191.96 249.392 191 248.624C190.04 247.856 188.888 247.472 187.544 247.472ZM230.003 244.88C232.136 244.88 233.822 245.499 235.059 246.736C236.318 247.973 236.947 249.808 236.947 252.24V262H233.875V252.592C233.875 250.949 233.491 249.712 232.723 248.88C231.976 248.048 230.899 247.632 229.491 247.632C227.934 247.632 226.696 248.123 225.779 249.104C224.862 250.064 224.403 251.451 224.403 253.264V262H221.331V252.592C221.331 250.949 220.947 249.712 220.179 248.88C219.432 248.048 218.355 247.632 216.947 247.632C215.39 247.632 214.152 248.123 213.235 249.104C212.318 250.064 211.859 251.451 211.859 253.264V262H208.787V245.04H211.731V247.568C212.35 246.693 213.16 246.032 214.163 245.584C215.166 245.115 216.307 244.88 217.587 244.88C218.91 244.88 220.083 245.147 221.107 245.68C222.131 246.213 222.92 246.992 223.475 248.016C224.115 247.035 225 246.267 226.131 245.712C227.283 245.157 228.574 244.88 230.003 244.88ZM250.341 259.504C252.368 259.504 254 258.821 255.237 257.456L256.901 259.44C256.155 260.336 255.205 261.019 254.053 261.488C252.923 261.957 251.653 262.192 250.245 262.192C248.453 262.192 246.864 261.829 245.477 261.104C244.091 260.357 243.013 259.323 242.245 258C241.499 256.677 241.125 255.184 241.125 253.52C241.125 251.877 241.488 250.395 242.213 249.072C242.96 247.749 243.973 246.725 245.253 246C246.555 245.253 248.016 244.88 249.637 244.88C251.173 244.88 252.571 245.232 253.829 245.936C255.088 246.619 256.091 247.589 256.837 248.848C257.584 250.107 257.968 251.557 257.989 253.2L244.517 255.824C244.944 256.997 245.659 257.904 246.661 258.544C247.685 259.184 248.912 259.504 250.341 259.504ZM249.637 247.472C248.571 247.472 247.611 247.717 246.757 248.208C245.925 248.699 245.275 249.392 244.805 250.288C244.336 251.163 244.101 252.187 244.101 253.36V253.68L254.949 251.632C254.672 250.395 254.053 249.392 253.093 248.624C252.133 247.856 250.981 247.472 249.637 247.472ZM283.503 244.88C285.636 244.88 287.322 245.499 288.559 246.736C289.818 247.973 290.447 249.808 290.447 252.24V262H287.375V252.592C287.375 250.949 286.991 249.712 286.223 248.88C285.476 248.048 284.399 247.632 282.991 247.632C281.434 247.632 280.196 248.123 279.279 249.104C278.362 250.064 277.903 251.451 277.903 253.264V262H274.831V252.592C274.831 250.949 274.447 249.712 273.679 248.88C272.932 248.048 271.855 247.632 270.447 247.632C268.89 247.632 267.652 248.123 266.735 249.104C265.818 250.064 265.359 251.451 265.359 253.264V262H262.287V245.04H265.231V247.568C265.85 246.693 266.66 246.032 267.663 245.584C268.666 245.115 269.807 244.88 271.087 244.88C272.41 244.88 273.583 245.147 274.607 245.68C275.631 246.213 276.42 246.992 276.975 248.016C277.615 247.035 278.5 246.267 279.631 245.712C280.783 245.157 282.074 244.88 283.503 244.88ZM303.457 262.192C301.772 262.192 300.257 261.819 298.913 261.072C297.569 260.325 296.513 259.301 295.745 258C294.999 256.677 294.625 255.184 294.625 253.52C294.625 251.856 294.999 250.373 295.745 249.072C296.513 247.749 297.569 246.725 298.913 246C300.257 245.253 301.772 244.88 303.457 244.88C305.143 244.88 306.647 245.253 307.969 246C309.313 246.725 310.359 247.749 311.105 249.072C311.873 250.373 312.257 251.856 312.257 253.52C312.257 255.184 311.873 256.677 311.105 258C310.359 259.301 309.313 260.325 307.969 261.072C306.647 261.819 305.143 262.192 303.457 262.192ZM303.457 259.504C304.545 259.504 305.516 259.259 306.369 258.768C307.244 258.256 307.927 257.552 308.417 256.656C308.908 255.739 309.153 254.693 309.153 253.52C309.153 252.347 308.908 251.312 308.417 250.416C307.927 249.499 307.244 248.795 306.369 248.304C305.516 247.813 304.545 247.568 303.457 247.568C302.369 247.568 301.388 247.813 300.513 248.304C299.66 248.795 298.977 249.499 298.465 250.416C297.975 251.312 297.729 252.347 297.729 253.52C297.729 254.693 297.975 255.739 298.465 256.656C298.977 257.552 299.66 258.256 300.513 258.768C301.388 259.259 302.369 259.504 303.457 259.504ZM319.45 247.888C319.983 246.907 320.772 246.16 321.818 245.648C322.863 245.136 324.132 244.88 325.626 244.88V247.856C325.455 247.835 325.22 247.824 324.922 247.824C323.258 247.824 321.946 248.325 320.986 249.328C320.047 250.309 319.578 251.717 319.578 253.552V262H316.506V245.04H319.45V247.888ZM329.412 245.04H332.484V262H329.412V245.04ZM330.948 241.776C330.351 241.776 329.849 241.584 329.444 241.2C329.06 240.816 328.868 240.347 328.868 239.792C328.868 239.237 329.06 238.768 329.444 238.384C329.849 237.979 330.351 237.776 330.948 237.776C331.545 237.776 332.036 237.968 332.42 238.352C332.825 238.715 333.028 239.173 333.028 239.728C333.028 240.304 332.825 240.795 332.42 241.2C332.036 241.584 331.545 241.776 330.948 241.776ZM345.998 259.504C348.024 259.504 349.656 258.821 350.894 257.456L352.558 259.44C351.811 260.336 350.862 261.019 349.71 261.488C348.579 261.957 347.31 262.192 345.902 262.192C344.11 262.192 342.52 261.829 341.134 261.104C339.747 260.357 338.67 259.323 337.902 258C337.155 256.677 336.782 255.184 336.782 253.52C336.782 251.877 337.144 250.395 337.87 249.072C338.616 247.749 339.63 246.725 340.91 246C342.211 245.253 343.672 244.88 345.294 244.88C346.83 244.88 348.227 245.232 349.486 245.936C350.744 246.619 351.747 247.589 352.494 248.848C353.24 250.107 353.624 251.557 353.646 253.2L340.174 255.824C340.6 256.997 341.315 257.904 342.318 258.544C343.342 259.184 344.568 259.504 345.998 259.504ZM345.294 247.472C344.227 247.472 343.267 247.717 342.414 248.208C341.582 248.699 340.931 249.392 340.462 250.288C339.992 251.163 339.758 252.187 339.758 253.36V253.68L350.606 251.632C350.328 250.395 349.71 249.392 348.75 248.624C347.79 247.856 346.638 247.472 345.294 247.472ZM362.807 262.192C361.421 262.192 360.087 262.011 358.807 261.648C357.527 261.264 356.525 260.784 355.799 260.208L357.079 257.776C357.826 258.309 358.733 258.736 359.799 259.056C360.866 259.376 361.943 259.536 363.031 259.536C365.719 259.536 367.063 258.768 367.063 257.232C367.063 256.72 366.882 256.315 366.519 256.016C366.157 255.717 365.698 255.504 365.143 255.376C364.61 255.227 363.842 255.067 362.839 254.896C361.474 254.683 360.354 254.437 359.479 254.16C358.626 253.883 357.89 253.413 357.271 252.752C356.653 252.091 356.343 251.163 356.343 249.968C356.343 248.432 356.983 247.205 358.263 246.288C359.543 245.349 361.261 244.88 363.415 244.88C364.546 244.88 365.677 245.019 366.807 245.296C367.938 245.573 368.866 245.947 369.591 246.416L368.279 248.848C366.893 247.952 365.261 247.504 363.383 247.504C362.082 247.504 361.09 247.717 360.407 248.144C359.725 248.571 359.383 249.136 359.383 249.84C359.383 250.395 359.575 250.832 359.959 251.152C360.343 251.472 360.813 251.707 361.367 251.856C361.943 252.005 362.743 252.176 363.767 252.368C365.133 252.603 366.231 252.859 367.063 253.136C367.917 253.392 368.642 253.84 369.239 254.48C369.837 255.12 370.135 256.016 370.135 257.168C370.135 258.704 369.474 259.931 368.151 260.848C366.85 261.744 365.069 262.192 362.807 262.192ZM391.56 244.88C393.203 244.88 394.675 245.243 395.976 245.968C397.278 246.693 398.291 247.707 399.016 249.008C399.763 250.309 400.136 251.813 400.136 253.52C400.136 255.227 399.763 256.741 399.016 258.064C398.291 259.365 397.278 260.379 395.976 261.104C394.675 261.829 393.203 262.192 391.56 262.192C390.302 262.192 389.15 261.947 388.104 261.456C387.059 260.965 386.195 260.251 385.512 259.312V262H382.568V238.256H385.64V247.6C386.323 246.704 387.176 246.032 388.2 245.584C389.224 245.115 390.344 244.88 391.56 244.88ZM391.304 259.504C392.392 259.504 393.363 259.259 394.216 258.768C395.091 258.256 395.774 257.552 396.264 256.656C396.776 255.739 397.032 254.693 397.032 253.52C397.032 252.347 396.776 251.312 396.264 250.416C395.774 249.499 395.091 248.795 394.216 248.304C393.363 247.813 392.392 247.568 391.304 247.568C390.238 247.568 389.267 247.813 388.392 248.304C387.518 248.795 386.835 249.499 386.344 250.416C385.854 251.312 385.608 252.347 385.608 253.52C385.608 254.693 385.854 255.739 386.344 256.656C386.835 257.552 387.518 258.256 388.392 258.768C389.267 259.259 390.238 259.504 391.304 259.504ZM412.029 259.504C414.055 259.504 415.687 258.821 416.925 257.456L418.589 259.44C417.842 260.336 416.893 261.019 415.741 261.488C414.61 261.957 413.341 262.192 411.933 262.192C410.141 262.192 408.551 261.829 407.165 261.104C405.778 260.357 404.701 259.323 403.933 258C403.186 256.677 402.813 255.184 402.813 253.52C402.813 251.877 403.175 250.395 403.901 249.072C404.647 247.749 405.661 246.725 406.941 246C408.242 245.253 409.703 244.88 411.325 244.88C412.861 244.88 414.258 245.232 415.517 245.936C416.775 246.619 417.778 247.589 418.525 248.848C419.271 250.107 419.655 251.557 419.677 253.2L406.205 255.824C406.631 256.997 407.346 257.904 408.349 258.544C409.373 259.184 410.599 259.504 412.029 259.504ZM411.325 247.472C410.258 247.472 409.298 247.717 408.445 248.208C407.613 248.699 406.962 249.392 406.493 250.288C406.023 251.163 405.789 252.187 405.789 253.36V253.68L416.637 251.632C416.359 250.395 415.741 249.392 414.781 248.624C413.821 247.856 412.669 247.472 411.325 247.472ZM433.031 244.88C435.185 244.88 436.892 245.509 438.151 246.768C439.431 248.005 440.071 249.829 440.071 252.24V262H436.999V252.592C436.999 250.949 436.604 249.712 435.815 248.88C435.025 248.048 433.895 247.632 432.423 247.632C430.759 247.632 429.447 248.123 428.487 249.104C427.527 250.064 427.047 251.451 427.047 253.264V262H423.975V238.256H427.047V247.44C427.687 246.629 428.519 246 429.543 245.552C430.588 245.104 431.751 244.88 433.031 244.88ZM445.756 245.04H448.828V262H445.756V245.04ZM447.292 241.776C446.694 241.776 446.193 241.584 445.788 241.2C445.404 240.816 445.212 240.347 445.212 239.792C445.212 239.237 445.404 238.768 445.788 238.384C446.193 237.979 446.694 237.776 447.292 237.776C447.889 237.776 448.38 237.968 448.764 238.352C449.169 238.715 449.372 239.173 449.372 239.728C449.372 240.304 449.169 240.795 448.764 241.2C448.38 241.584 447.889 241.776 447.292 241.776ZM463.749 244.88C465.904 244.88 467.611 245.509 468.869 246.768C470.149 248.005 470.789 249.829 470.789 252.24V262H467.717V252.592C467.717 250.949 467.323 249.712 466.533 248.88C465.744 248.048 464.613 247.632 463.141 247.632C461.477 247.632 460.165 248.123 459.205 249.104C458.245 250.064 457.765 251.451 457.765 253.264V262H454.693V245.04H457.637V247.6C458.256 246.725 459.088 246.053 460.133 245.584C461.2 245.115 462.405 244.88 463.749 244.88ZM492.568 238.256V262H489.624V259.312C488.942 260.251 488.078 260.965 487.032 261.456C485.987 261.947 484.835 262.192 483.576 262.192C481.934 262.192 480.462 261.829 479.16 261.104C477.859 260.379 476.835 259.365 476.088 258.064C475.363 256.741 475 255.227 475 253.52C475 251.813 475.363 250.309 476.088 249.008C476.835 247.707 477.859 246.693 479.16 245.968C480.462 245.243 481.934 244.88 483.576 244.88C484.792 244.88 485.912 245.115 486.936 245.584C487.96 246.032 488.814 246.704 489.496 247.6V238.256H492.568ZM483.832 259.504C484.899 259.504 485.87 259.259 486.744 258.768C487.619 258.256 488.302 257.552 488.792 256.656C489.283 255.739 489.528 254.693 489.528 253.52C489.528 252.347 489.283 251.312 488.792 250.416C488.302 249.499 487.619 248.795 486.744 248.304C485.87 247.813 484.899 247.568 483.832 247.568C482.744 247.568 481.763 247.813 480.888 248.304C480.035 248.795 479.352 249.499 478.84 250.416C478.35 251.312 478.104 252.347 478.104 253.52C478.104 254.693 478.35 255.739 478.84 256.656C479.352 257.552 480.035 258.256 480.888 258.768C481.763 259.259 482.744 259.504 483.832 259.504ZM515.903 261.008C515.455 261.392 514.9 261.691 514.239 261.904C513.577 262.096 512.895 262.192 512.191 262.192C510.484 262.192 509.161 261.733 508.223 260.816C507.284 259.899 506.815 258.587 506.815 256.88V241.328H509.887V245.04H514.751V247.568H509.887V256.752C509.887 257.669 510.111 258.373 510.559 258.864C511.028 259.355 511.689 259.6 512.543 259.6C513.481 259.6 514.281 259.333 514.943 258.8L515.903 261.008ZM528.656 244.88C530.81 244.88 532.517 245.509 533.776 246.768C535.056 248.005 535.696 249.829 535.696 252.24V262H532.624V252.592C532.624 250.949 532.229 249.712 531.44 248.88C530.65 248.048 529.52 247.632 528.048 247.632C526.384 247.632 525.072 248.123 524.112 249.104C523.152 250.064 522.672 251.451 522.672 253.264V262H519.6V238.256H522.672V247.44C523.312 246.629 524.144 246 525.168 245.552C526.213 245.104 527.376 244.88 528.656 244.88ZM549.123 259.504C551.149 259.504 552.781 258.821 554.019 257.456L555.683 259.44C554.936 260.336 553.987 261.019 552.835 261.488C551.704 261.957 550.435 262.192 549.027 262.192C547.235 262.192 545.645 261.829 544.259 261.104C542.872 260.357 541.795 259.323 541.027 258C540.28 256.677 539.907 255.184 539.907 253.52C539.907 251.877 540.269 250.395 540.995 249.072C541.741 247.749 542.755 246.725 544.035 246C545.336 245.253 546.797 244.88 548.419 244.88C549.955 244.88 551.352 245.232 552.611 245.936C553.869 246.619 554.872 247.589 555.619 248.848C556.365 250.107 556.749 251.557 556.771 253.2L543.299 255.824C543.725 256.997 544.44 257.904 545.443 258.544C546.467 259.184 547.693 259.504 549.123 259.504ZM548.419 247.472C547.352 247.472 546.392 247.717 545.539 248.208C544.707 248.699 544.056 249.392 543.587 250.288C543.117 251.163 542.883 252.187 542.883 253.36V253.68L553.731 251.632C553.453 250.395 552.835 249.392 551.875 248.624C550.915 247.856 549.763 247.472 548.419 247.472ZM574.814 262.192C573.171 262.192 571.902 261.744 571.006 260.848C570.11 259.931 569.662 258.651 569.662 257.008V238.256H572.734V256.752C572.734 257.669 572.947 258.373 573.374 258.864C573.822 259.355 574.483 259.6 575.358 259.6C575.891 259.6 576.393 259.493 576.862 259.28L577.022 261.808C576.318 262.064 575.582 262.192 574.814 262.192ZM587.279 259.504C589.305 259.504 590.937 258.821 592.175 257.456L593.839 259.44C593.092 260.336 592.143 261.019 590.991 261.488C589.86 261.957 588.591 262.192 587.183 262.192C585.391 262.192 583.801 261.829 582.415 261.104C581.028 260.357 579.951 259.323 579.183 258C578.436 256.677 578.063 255.184 578.063 253.52C578.063 251.877 578.425 250.395 579.151 249.072C579.897 247.749 580.911 246.725 582.191 246C583.492 245.253 584.953 244.88 586.575 244.88C588.111 244.88 589.508 245.232 590.767 245.936C592.025 246.619 593.028 247.589 593.775 248.848C594.521 250.107 594.905 251.557 594.927 253.2L581.455 255.824C581.881 256.997 582.596 257.904 583.599 258.544C584.623 259.184 585.849 259.504 587.279 259.504ZM586.575 247.472C585.508 247.472 584.548 247.717 583.695 248.208C582.863 248.699 582.212 249.392 581.743 250.288C581.273 251.163 581.039 252.187 581.039 253.36V253.68L591.887 251.632C591.609 250.395 590.991 249.392 590.031 248.624C589.071 247.856 587.919 247.472 586.575 247.472ZM608.281 244.88C610.435 244.88 612.142 245.509 613.401 246.768C614.681 248.005 615.321 249.829 615.321 252.24V262H612.249V252.592C612.249 250.949 611.854 249.712 611.065 248.88C610.275 248.048 609.145 247.632 607.673 247.632C606.009 247.632 604.697 248.123 603.737 249.104C602.777 250.064 602.297 251.451 602.297 253.264V262H599.225V245.04H602.169V247.6C602.787 246.725 603.619 246.053 604.665 245.584C605.731 245.115 606.937 244.88 608.281 244.88ZM625.87 262.192C624.483 262.192 623.15 262.011 621.87 261.648C620.59 261.264 619.587 260.784 618.862 260.208L620.142 257.776C620.888 258.309 621.795 258.736 622.862 259.056C623.928 259.376 625.006 259.536 626.094 259.536C628.782 259.536 630.126 258.768 630.126 257.232C630.126 256.72 629.944 256.315 629.582 256.016C629.219 255.717 628.76 255.504 628.206 255.376C627.672 255.227 626.904 255.067 625.902 254.896C624.536 254.683 623.416 254.437 622.542 254.16C621.688 253.883 620.952 253.413 620.334 252.752C619.715 252.091 619.406 251.163 619.406 249.968C619.406 248.432 620.046 247.205 621.326 246.288C622.606 245.349 624.323 244.88 626.478 244.88C627.608 244.88 628.739 245.019 629.87 245.296C631 245.573 631.928 245.947 632.654 246.416L631.342 248.848C629.955 247.952 628.323 247.504 626.446 247.504C625.144 247.504 624.152 247.717 623.47 248.144C622.787 248.571 622.446 249.136 622.446 249.84C622.446 250.395 622.638 250.832 623.022 251.152C623.406 251.472 623.875 251.707 624.43 251.856C625.006 252.005 625.806 252.176 626.83 252.368C628.195 252.603 629.294 252.859 630.126 253.136C630.979 253.392 631.704 253.84 632.302 254.48C632.899 255.12 633.198 256.016 633.198 257.168C633.198 258.704 632.536 259.931 631.214 260.848C629.912 261.744 628.131 262.192 625.87 262.192Z" fill="#434343"/>
</svg>
