<svg width="671" height="148" viewBox="0 0 671 148" fill="none" xmlns="http://www.w3.org/2000/svg">
<rect x="7.96445" y="6.36395" width="9" height="9" transform="rotate(-45 7.96445 6.36395)" fill="#9746FF"/>
<rect y="14.4705" width="9" height="9" transform="rotate(-45 0 14.4705)" fill="#9746FF"/>
<rect x="8" y="22.4705" width="9" height="9" transform="rotate(-45 8 22.4705)" fill="#9746FF"/>
<rect x="16" y="14.4705" width="9" height="9" transform="rotate(-45 16 14.4705)" fill="#9746FF"/>
<path d="M40.3984 5.54545L44.6171 18.8068H44.779L49.0063 5.54545H53.0972L47.0802 23H42.3245L36.2989 5.54545H40.3984ZM59.6192 23.2557C58.2726 23.2557 57.1136 22.983 56.142 22.4375C55.1761 21.8864 54.4317 21.108 53.909 20.1023C53.3863 19.0909 53.1249 17.8949 53.1249 16.5142C53.1249 15.1676 53.3863 13.9858 53.909 12.9688C54.4317 11.9517 55.1675 11.1591 56.1164 10.5909C57.0709 10.0227 58.1903 9.73864 59.4744 9.73864C60.338 9.73864 61.142 9.87784 61.8863 10.1562C62.6363 10.429 63.2897 10.8409 63.8465 11.392C64.409 11.9432 64.8465 12.6364 65.159 13.4716C65.4715 14.3011 65.6278 15.2727 65.6278 16.3864V17.3835H54.5738V15.1335H62.2102C62.2102 14.6108 62.0965 14.1477 61.8692 13.7443C61.642 13.3409 61.3266 13.0256 60.9232 12.7983C60.5255 12.5653 60.0624 12.4489 59.534 12.4489C58.9829 12.4489 58.4942 12.5767 58.0681 12.8324C57.6476 13.0824 57.3181 13.4205 57.0795 13.8466C56.8408 14.267 56.7187 14.7358 56.713 15.2528V17.392C56.713 18.0398 56.8323 18.5994 57.0709 19.071C57.3153 19.5426 57.659 19.9062 58.1022 20.1619C58.5454 20.4176 59.0709 20.5455 59.6789 20.5455C60.0823 20.5455 60.4516 20.4886 60.7869 20.375C61.1221 20.2614 61.409 20.0909 61.6476 19.8636C61.8863 19.6364 62.0681 19.358 62.1931 19.0284L65.5511 19.25C65.3806 20.0568 65.0312 20.7614 64.5028 21.3636C63.98 21.9602 63.3039 22.4261 62.4744 22.7614C61.6505 23.0909 60.6988 23.2557 59.6192 23.2557ZM67.9971 23V9.90909H71.517V12.1932H71.6533C71.892 11.3807 72.2925 10.767 72.855 10.3523C73.4175 9.93182 74.0653 9.72159 74.7982 9.72159C74.98 9.72159 75.1761 9.73295 75.3863 9.75568C75.5965 9.77841 75.7812 9.80966 75.9403 9.84943V13.071C75.7698 13.0199 75.534 12.9744 75.2329 12.9347C74.9317 12.8949 74.6562 12.875 74.4062 12.875C73.8721 12.875 73.3948 12.9915 72.9744 13.2244C72.5596 13.4517 72.23 13.7699 71.9857 14.179C71.7471 14.5881 71.6278 15.0597 71.6278 15.5938V23H67.9971ZM77.8856 23V5.54545H81.5163V12.108H81.6271C81.7861 11.7557 82.0163 11.3977 82.3174 11.0341C82.6242 10.6648 83.0219 10.358 83.5106 10.1136C84.0049 9.86364 84.6185 9.73864 85.3515 9.73864C86.306 9.73864 87.1867 9.98864 87.9935 10.4886C88.8003 10.983 89.4452 11.7301 89.9282 12.7301C90.4111 13.7244 90.6526 14.9716 90.6526 16.4716C90.6526 17.9318 90.4168 19.1648 89.9452 20.1705C89.4793 21.1705 88.843 21.929 88.0361 22.446C87.235 22.9574 86.3373 23.2131 85.343 23.2131C84.6384 23.2131 84.039 23.0966 83.5447 22.8636C83.056 22.6307 82.6555 22.3381 82.343 21.9858C82.0305 21.6278 81.7918 21.267 81.6271 20.9034H81.4651V23H77.8856ZM81.4396 16.4545C81.4396 17.233 81.5475 17.9119 81.7634 18.4915C81.9793 19.071 82.2918 19.5227 82.7009 19.8466C83.11 20.1648 83.6072 20.3239 84.1924 20.3239C84.7833 20.3239 85.2833 20.1619 85.6924 19.8381C86.1015 19.5085 86.4111 19.054 86.6214 18.4744C86.8373 17.8892 86.9452 17.2159 86.9452 16.4545C86.9452 15.6989 86.8401 15.0341 86.6299 14.4602C86.4197 13.8864 86.11 13.4375 85.7009 13.1136C85.2918 12.7898 84.789 12.6278 84.1924 12.6278C83.6015 12.6278 83.1015 12.7841 82.6924 13.0966C82.289 13.4091 81.9793 13.8523 81.7634 14.4261C81.5475 15 81.4396 15.6761 81.4396 16.4545Z" fill="#9746FF"/>
<rect x="0.75" y="38.75" width="669.5" height="108.5" stroke="#9746FF" stroke-width="1.5" stroke-dasharray="10 10"/>
</svg>
